<?xml version="1.0" standalone="no"?>
<!DOCTYPE svg PUBLIC "-//W3C//DTD SVG 1.1//EN" "http://www.w3.org/Graphics/SVG/1.1/DTD/svg11.dtd" >
<svg xmlns="http://www.w3.org/2000/svg">
<metadata></metadata>
<defs>
<font id="brandon_grotesquelight" horiz-adv-x="995" >
<font-face units-per-em="2048" ascent="1434" descent="-614" />
<missing-glyph horiz-adv-x="444" />
<glyph unicode="&#xfb01;" horiz-adv-x="1058" d="M49 770v23q0 27 27 26h133v273q0 172 97 267t239 95q98 0 179 -37t120 -74q14 -10 2 -30l-23 -33q-10 -16 -32 -2l-21 16q-23 14 -33 20.5t-35.5 20t-46 19.5t-50.5 12t-60 6q-102 0 -175 -73.5t-73 -206.5v-273h580q27 0 26 -26v-766q0 -27 -29 -27h-34q-27 0 -27 27 v712h-516v-712q0 -27 -27 -27h-34q-27 0 -27 27v712h-133q-27 0 -27 31z" />
<glyph unicode="&#xfb02;" horiz-adv-x="1069" d="M49 766v27q0 27 27 26h135v283q0 172 96 262t238 90q174 0 284 -111l9 66q6 25 34 25h15q27 0 26 -27v-1380q0 -27 -28 -27h-35q-27 0 -27 27v1212l-12 12q-12 12 -23.5 21.5t-30 24t-40 25.5t-47 21.5t-56 16.5t-63.5 6q-104 0 -178 -66.5t-74 -197.5v-283h303 q27 0 27 -24v-31q0 -25 -27 -25h-303v-712q0 -27 -27 -27h-36q-25 0 -25 27v712h-135q-27 0 -27 27z" />
<glyph horiz-adv-x="2048" />
<glyph horiz-adv-x="2048" />
<glyph unicode="&#xd;" horiz-adv-x="681" />
<glyph unicode=" "  horiz-adv-x="444" />
<glyph unicode="&#x09;" horiz-adv-x="444" />
<glyph unicode="&#xa0;" horiz-adv-x="444" />
<glyph unicode="!" horiz-adv-x="606" d="M219 61q0 35 24.5 58.5t59.5 23.5t58.5 -23.5t23.5 -58t-23.5 -58t-58.5 -23.5t-59.5 24t-24.5 57zM248 1157v250q0 27 31 27h51q27 0 26 -27v-248l-18 -584q0 -8 -8 -16t-19 -8h-16q-10 0 -18.5 7t-8.5 17z" />
<glyph unicode="&#x22;" horiz-adv-x="612" d="M115 1038v369q0 27 26 27h43q29 0 25 -33l-33 -363q-4 -23 -20 -22h-23q-18 0 -18 22zM422 1038v369q0 27 27 27h43q29 0 24 -33l-33 -363q-4 -23 -20 -22h-23q-18 0 -18 22z" />
<glyph unicode="#" horiz-adv-x="1126" d="M94 449v10q0 27 25 26h180l63 373h-184q-27 0 -26 27v12q0 27 26 27h195l82 487q2 23 26 23h13q27 0 22 -31l-80 -479h334l82 487q2 23 27 23h14q25 0 20 -31l-79 -479h170q25 0 24 -27v-12q0 -27 -22 -27h-181l-63 -373h182q27 0 27 -26v-10q0 -27 -25 -27h-194 l-68 -399q-4 -23 -27 -23h-12q-31 0 -24 31l67 391h-336l-65 -399q-4 -23 -27 -23h-12q-31 0 -25 31l68 391h-172q-25 0 -25 27zM365 485h333l62 373h-332z" />
<glyph unicode="$" horiz-adv-x="1091" d="M113 1092q0 129 104.5 239.5t308.5 120.5v76q0 27 29 26h8q27 0 27 -26v-78q82 -4 161.5 -29.5t116.5 -48.5l39 -24q25 -20 11 -41l-21 -31q-16 -23 -43 -8q-123 82 -264 94q0 -100 -1 -301t-1 -301q213 -74 315.5 -167t102.5 -251q0 -145 -124 -248.5t-294 -113.5v-222 q0 -25 -29 -24q-33 0 -33 24v222q-217 11 -401 167q-23 18 -6 43l22 29q16 20 52 -6q152 -133 333 -145v614q-211 70 -312 157t-101 253zM207 1094q0 -119 78.5 -187t240.5 -123v580q-160 -6 -239.5 -89t-79.5 -181zM588 68q131 8 224 86.5t93 185.5q0 115 -78.5 185.5 t-238.5 129.5v-587z" />
<glyph unicode="%" horiz-adv-x="1409" d="M84 1171.5q0 118.5 83 200.5t199.5 82t199.5 -82t83 -200.5t-83 -200.5t-199.5 -82t-199.5 82t-83 200.5zM162 1171q0 -86 59.5 -146t145.5 -60q84 0 144 60t60 146q0 84 -60 144.5t-144 60.5q-86 0 -145.5 -60.5t-59.5 -144.5zM242 11.5q-4 11.5 4 23.5l778 1388 q6 10 25 11h36q14 0 19.5 -12.5t-2.5 -26.5l-780 -1381q-6 -14 -25 -14h-37q-14 0 -18 11.5zM725 260q0 119 82 202t201 83q117 0 199.5 -83t82.5 -202q0 -117 -83 -200t-199 -83q-119 0 -201 83t-82 200zM801 260q0 -86 60.5 -145.5t146.5 -59.5q84 0 144 59.5t60 145.5 q0 84 -60 144.5t-144 60.5q-86 0 -146.5 -60.5t-60.5 -144.5z" />
<glyph unicode="&#x26;" horiz-adv-x="1388" d="M184 354q0 254 303 416l-30 33q-57 63 -88 102t-60.5 103.5t-27.5 128.5q0 121 91 219t259 98q156 0 244 -90t88 -219q0 -213 -338 -389l417 -414q123 197 123 418q0 6 -1 20.5t-1 20.5q0 18 17 18h43q18 0 24 -18q4 -14 4 -41q0 -252 -147 -477l213 -211q31 -27 8 -47 l-33 -31q-18 -18 -41 4l-204 207q-193 -225 -474 -225q-178 0 -283.5 108t-105.5 266zM274 354q0 -125 85 -209t216 -84q244 0 414 203l-444 451q-271 -146 -271 -361zM367 1135q-2 -115 139 -261l59 -59q307 156 307 328q0 94 -65.5 162.5t-181.5 68.5q-123 0 -190.5 -71.5 t-67.5 -167.5z" />
<glyph unicode="'" horiz-adv-x="305" d="M115 1038v369q0 27 26 27h43q29 0 25 -33l-33 -363q-4 -23 -20 -22h-23q-18 0 -18 22z" />
<glyph unicode="(" horiz-adv-x="704" d="M129 645q0 215 42 376t114.5 250t155.5 133t177 48q25 0 25 -18l2 -31q4 -25 -16 -25q-190 -27 -300 -205t-110 -528t110 -528t300 -205q20 0 16 -25l-2 -30q0 -20 -25 -17q-94 4 -177 47t-155.5 132.5t-114.5 250t-42 375.5z" />
<glyph unicode=")" horiz-adv-x="704" d="M59 -113q-4 25 19 25q190 27 298.5 205t108.5 528t-108.5 528.5t-298.5 204.5q-23 0 -19 25l2 31q4 18 27 18q74 -4 141.5 -30.5t132 -86t110.5 -148.5t74.5 -228.5t28.5 -313.5q0 -217 -41.5 -376.5t-114.5 -249t-155 -132.5t-176 -47q-23 -2 -27 17z" />
<glyph unicode="*" horiz-adv-x="696" d="M88 1284l12 21q10 16 33 4l182 -113l-2 211q0 27 27 27h16q27 0 27 -27l-2 -211l180 115q18 10 35 -8l10 -17q10 -23 -8 -35l-188 -114l190 -115q20 -12 8 -33l-10 -18q-14 -23 -37 -8l-180 114l2 -211q0 -27 -27 -26h-16q-27 0 -27 26l2 211l-180 -112q-20 -14 -35 8 l-10 16q-14 20 8 35l187 113l-189 112q-20 12 -8 35z" />
<glyph unicode="+" horiz-adv-x="1034" d="M96 694v31q0 27 27 27h352v354q0 25 27 24h33q27 0 26 -24v-354h350q27 0 27 -27v-31q0 -27 -27 -26h-350v-351q0 -27 -26 -26h-33q-27 -1 -27 26v351h-352q-27 0 -27 26z" />
<glyph unicode="," horiz-adv-x="473" d="M145 61q0 37 24 58.5t62 21.5q49 0 82 -48t33 -144q0 -106 -50 -182t-97 -103q-25 -14 -35 0l-17 21q-14 16 9 32q104 84 114 195q2 45 -10 78q-16 -10 -33 -10q-39 0 -60.5 23t-21.5 58z" />
<glyph unicode="-" horiz-adv-x="978" d="M233 500v22q0 27 25 27h463q27 0 27 -27v-22q0 -27 -27 -27h-463q-25 0 -25 27z" />
<glyph unicode="." horiz-adv-x="456" d="M145 61q0 35 25 58.5t59.5 23.5t58 -23.5t23.5 -58t-23.5 -58t-58 -23.5t-59.5 24t-25 57z" />
<glyph unicode="/" horiz-adv-x="669" d="M84 29l453 1388q6 16 26 17h29q14 0 21.5 -8.5t2.5 -20.5l-452 -1387q-6 -18 -27 -18h-31q-32 0 -22 29z" />
<glyph unicode="0" horiz-adv-x="1318" d="M158 698q0 338 132 528.5t369.5 190.5t369.5 -190.5t132 -528.5t-132 -528t-369.5 -190t-369.5 190t-132 528zM248 698q0 -303 106 -469t305 -166q197 0 303.5 166t106.5 469q0 301 -106.5 467t-303 166t-304 -166t-107.5 -467z" />
<glyph unicode="1" horiz-adv-x="659" d="M41 1087q-14 16 4 31l328 277h30q31 0 31 -25v-1343q0 -27 -26 -27h-41q-27 0 -27 27v1230l-244 -200q-18 -14 -30 2z" />
<glyph unicode="2" horiz-adv-x="1073" d="M82 25v36l543 545q227 227 227 406q0 129 -89 222t-255 93q-39 0 -75 -7t-64.5 -21.5t-52 -28t-45 -32.5t-33 -30.5t-25.5 -27.5l-16 -19q-18 -23 -41 -6l-25 21q-18 18 -4 36q6 8 15.5 21.5t45 49.5t76.5 62.5t106.5 48t137.5 21.5q207 0 323.5 -115.5t116.5 -285.5 q0 -125 -65.5 -231.5t-192.5 -233.5l-467 -465h688q27 0 27 -27v-30q0 -27 -27 -27h-802q-27 0 -27 25z" />
<glyph unicode="3" horiz-adv-x="1118" d="M106 162q-16 20 0 35l33 26q16 14 37 -6l25 -24q27 -27 38 -37.5t44.5 -33t63.5 -32.5t77 -19.5t100 -9.5q160 0 261.5 84t101.5 224q0 141 -110.5 220t-258.5 79h-190q-27 0 -27 26v37q0 25 29 25h188q82 0 153.5 26.5t125 93t53.5 164.5q0 127 -89 208t-222 81 q-193 0 -322 -151q-16 -20 -35 -4l-30 24q-23 14 -2 35q6 8 17 20.5t49 43t80 55t107.5 44t135.5 19.5q178 0 292.5 -101.5t114.5 -262.5q0 -113 -69.5 -204t-161.5 -126v-4q106 -33 187 -129t81 -213q0 -172 -127 -283.5t-336 -111.5q-254 0 -414 182z" />
<glyph unicode="4" horiz-adv-x="1193" d="M31 350v35l837 1032h37q23 0 23 -22q0 -166 1 -498t1 -498h155q27 0 27 -24v-27q0 -27 -27 -26h-155v-295q0 -27 -27 -27h-10q-55 -2 -55 27v292h-772q-35 0 -35 31zM145 401h697v852z" />
<glyph unicode="5" horiz-adv-x="1116" d="M143 197q6 4 14.5 13t14.5 13q20 16 35 -4q127 -156 338 -156q168 0 276.5 115t108.5 272.5t-98.5 249t-286.5 91.5h-340q-18 0 -28.5 13t-10.5 30v534q0 27 27 27h643q27 0 26 -27v-33q0 -27 -26 -26h-584v-432h293q233 0 356 -111t123 -315q0 -197 -137 -334t-344 -137 q-255 0 -398 172q-20 27 -2 45z" />
<glyph unicode="6" horiz-adv-x="1134" d="M119 563q0 158 53 298t129 232.5t175 169t172 114.5t140 65q25 6 31 -15l15 -30q10 -27 -23 -39q-43 -14 -100.5 -44t-137 -86.5t-147.5 -124t-124 -165.5t-75 -205q39 51 142.5 108.5t240.5 57.5q182 0 313.5 -125t131.5 -323q0 -195 -135.5 -333t-321.5 -138 q-231 0 -355 163.5t-124 419.5zM207 549q0 -203 102.5 -345.5t288.5 -142.5q150 0 258.5 114t108.5 271q0 160 -106.5 264.5t-256.5 104.5q-70 0 -135.5 -21.5t-106.5 -47t-80.5 -62.5t-49 -48t-19.5 -26q-4 -41 -4 -61z" />
<glyph unicode="7" horiz-adv-x="968" d="M41 1337v31q0 27 27 27h847q29 0 29 -25v-10l-602 -1327q-14 -33 -39 -33h-49q-14 0 -17 12.5t3 20.5l583 1276h-755q-27 0 -27 28z" />
<glyph unicode="8" horiz-adv-x="1175" d="M129 367q0 127 89 221t218 125v4q-115 33 -192.5 120t-77.5 203q0 160 110.5 265.5t307.5 105.5q199 0 312.5 -106.5t113.5 -264.5q0 -117 -78 -203.5t-193 -119.5v-4q131 -31 219.5 -123t88.5 -223q0 -180 -127 -283.5t-336 -103.5q-205 0 -330 103.5t-125 283.5z M223 358q0 -143 102.5 -222t258.5 -79q162 0 265 78t103 223q0 119 -99 204t-265 100q-168 -14 -266.5 -98.5t-98.5 -205.5zM258 1038q0 -119 88 -192.5t242 -83.5q152 10 241 84t89 192q0 125 -90.5 210t-245.5 85q-152 0 -238 -85t-86 -210z" />
<glyph unicode="9" horiz-adv-x="1132" d="M80 954q0 195 135 333t322 138q229 0 354 -163.5t125 -419.5q0 -158 -53.5 -298.5t-129 -232.5t-176 -168.5t-172 -114.5t-141.5 -65q-20 -6 -31 14l-12 31q-10 29 23 39q57 20 134 64.5t174 120t174 192.5t99 248q-39 -51 -142.5 -108.5t-238.5 -57.5q-182 0 -313 125 t-131 323zM170 958q0 -160 105 -264t255 -104q70 0 136.5 21.5t106.5 46t80 62.5t48 49t21 26q4 41 4 61q0 203 -101.5 345t-287.5 142q-152 0 -259.5 -113.5t-107.5 -271.5z" />
<glyph unicode=":" horiz-adv-x="538" d="M186 61q0 35 25 58.5t59.5 23.5t58 -23.5t23.5 -58t-23.5 -58t-58 -23.5t-59.5 24t-25 57zM186 756q0 35 25 59.5t59.5 24.5t58 -24.5t23.5 -59.5q0 -33 -23.5 -57.5t-58.5 -24.5q-33 0 -58.5 24.5t-25.5 57.5z" />
<glyph unicode=";" horiz-adv-x="546" d="M186 61q0 37 23.5 58.5t62.5 21.5q49 0 82 -48t33 -144q0 -106 -50 -182t-97 -103q-25 -14 -35 0l-17 21q-14 16 9 32q104 84 114 195q2 45 -10 78q-16 -10 -33 -10q-39 0 -60.5 23t-21.5 58zM186 756q0 35 23.5 59.5t58.5 24.5t58.5 -24.5t23.5 -59.5q0 -33 -23.5 -57.5 t-58.5 -24.5q-33 0 -57.5 24.5t-24.5 57.5z" />
<glyph unicode="&#x3c;" horiz-adv-x="886" d="M53 473v2q0 16 21 29l723 459q10 8 19 1.5t9 -22.5v-47q0 -20 -16 -31l-623 -391l623 -379q16 -10 16 -31v-47q0 -16 -9 -22t-19 2l-723 444q-20 12 -21 33z" />
<glyph unicode="=" horiz-adv-x="1148" d="M225 350v35q0 27 27 27h645q27 0 27 -27v-35q0 -27 -27 -26h-645q-27 0 -27 26zM225 776v35q0 27 27 27h645q27 0 27 -27v-35q0 -27 -27 -26h-645q-27 0 -27 26z" />
<glyph unicode="&#x3e;" horiz-adv-x="886" d="M61 16v47q0 20 17 31l622 379l-622 391q-16 10 -17 31v47q0 16 9.5 22.5t19.5 -1.5l723 -459q20 -12 21 -29v-2q0 -20 -21 -33l-723 -444q-10 -8 -19.5 -2t-9.5 22z" />
<glyph unicode="?" horiz-adv-x="960" d="M125 1280q4 6 13 18.5t42 42t72 53t102.5 42t132.5 18.5q154 0 246 -81t92 -208q0 -76 -35.5 -137t-86 -101t-100.5 -74t-86 -72t-36 -76v-117q0 -29 -26 -29h-39q-25 0 -25 29v119q0 66 53.5 125t118 98t117.5 99.5t53 129.5q0 86 -68.5 149.5t-183.5 63.5 q-39 0 -74.5 -6t-63.5 -18.5t-50.5 -24.5t-41 -28.5t-29.5 -28t-22.5 -23.5t-13.5 -14q-14 -14 -34 -2l-21 14q-23 14 -6 39zM352 61q0 35 23.5 58.5t58.5 23.5t59.5 -23.5t24.5 -58t-24.5 -58t-59.5 -23.5q-33 0 -57.5 24t-24.5 57z" />
<glyph unicode="@" horiz-adv-x="2027" d="M98 459q0 440 257 717.5t685 277.5q401 0 633 -241.5t232 -620.5q0 -111 -20.5 -211t-64.5 -194.5t-131 -150.5t-204 -56q-188 0 -230 161q-37 -59 -111.5 -110t-180.5 -51q-166 0 -272.5 121.5t-106.5 312.5q0 188 116.5 307t284.5 119q74 0 136.5 -22.5t88.5 -45.5 l27 -22l6 45q2 25 29 24h20q27 0 27 -26v-514q0 -223 170 -224q164 0 249 152.5t85 384.5q0 348 -207 567t-578 219q-391 0 -624.5 -252t-233.5 -667q0 -295 156 -513t416 -331q23 -10 12 -33l-14 -33q-8 -20 -29 -12q-283 121 -453 360.5t-170 561.5zM672 414 q0 -156 83 -252t214 -96q63 0 115.5 22.5t82 57t45 61t21.5 47.5v387q-6 12 -28.5 34.5t-83 52.5t-132.5 30q-133 0 -225 -95t-92 -249z" />
<glyph unicode="A" horiz-adv-x="1337" d="M12 25l631 1425q8 14 25 14h6q18 0 26 -14l625 -1425q2 -6 2 -10q0 -15 -20 -15h-54q-20 0 -28 18l-166 377h-783l-163 -377q-10 -18 -29 -18h-57q-17 0 -17 14q0 5 2 11zM313 475h711l-350 825h-4z" />
<glyph unicode="B" horiz-adv-x="1275" d="M217 27v1380q0 27 27 27h436q190 0 307 -101.5t117 -269.5q0 -117 -62.5 -204t-162.5 -128q119 -33 194.5 -118t75.5 -224q0 -172 -126 -280.5t-325 -108.5h-454q-27 0 -27 27zM311 86h396q150 0 243.5 86t93.5 219t-100 212t-250 79h-383v-596zM313 770h381 q141 0 223 80t82 209q0 133 -86 208.5t-233 75.5h-367v-573z" />
<glyph unicode="C" horiz-adv-x="1470" d="M115 715q0 307 217 523t524 216q289 0 498 -190q10 -10 10 -19t-8 -18l-33 -35q-16 -16 -35 2q-188 168 -432 168q-268 0 -453.5 -190.5t-185.5 -456.5t185.5 -454.5t453.5 -188.5q225 0 432 172q18 14 33 4l35 -35q9 -8 9 -16.5t-9 -18.5q-204 -198 -497 -198h-3 q-307 0 -524 214t-217 521z" />
<glyph unicode="D" horiz-adv-x="1511" d="M217 27v1380q0 10 7 18.5t18 8.5h434q297 0 509 -210t212 -505q0 -299 -211 -509t-510 -210h-434q-10 0 -17.5 8.5t-7.5 18.5zM313 88h346q268 0 451.5 181.5t183.5 449.5q0 266 -183 446.5t-452 180.5h-346v-1258z" />
<glyph unicode="E" horiz-adv-x="1224" d="M217 27v1380q0 27 27 27h821q27 0 27 -27v-35q0 -27 -27 -26h-750v-566h650q27 0 26 -26v-35q0 -27 -26 -27h-650v-606h750q27 0 27 -27v-32q0 -27 -27 -27h-821q-27 0 -27 27z" />
<glyph unicode="F" horiz-adv-x="1173" d="M217 27v1380q0 27 27 27h821q27 0 27 -27v-35q0 -27 -27 -26h-750v-623h650q27 0 26 -27q0 -59 -26 -59h-650l-2 -610q0 -27 -32 -27h-37q-27 0 -27 27z" />
<glyph unicode="G" horiz-adv-x="1521" d="M115 715q0 307 216 523t525 216q287 0 496 -190q20 -18 2 -37q-10 -12 -33 -35q-16 -18 -35 0q-184 172 -432 172q-266 0 -451.5 -189.5t-185.5 -455.5t185.5 -455.5t451.5 -189.5q113 0 216.5 26.5t147.5 49t62 36.5v385h-350q-27 0 -27 27v41q0 25 27 25h420 q10 0 18 -7.5t8 -17.5v-475q0 -33 -28 -53q-33 -20 -84.5 -46t-169 -55.5t-238.5 -29.5q-309 0 -525 214t-216 521z" />
<glyph unicode="H" horiz-adv-x="1546" d="M217 27v1380q0 27 27 27h43q27 0 26 -27v-629h920v629q0 27 27 27h43q27 0 26 -27v-1380q0 -27 -26 -27h-43q-27 0 -27 27v665h-920v-665q0 -27 -26 -27h-43q-27 0 -27 27z" />
<glyph unicode="I" horiz-adv-x="532" d="M217 27v1380q0 27 27 27h45q27 0 26 -27v-1380q0 -27 -28 -27h-43q-27 0 -27 27z" />
<glyph unicode="J" horiz-adv-x="800" d="M-51 133q-6 9 -6 17q0 10 8 18l26 25q18 16 35 0q41 -41 58.5 -57.5t75 -43t118.5 -26.5q135 0 217 93t82 271v977q0 27 29 27h41q27 0 26 -27v-975q0 -213 -106.5 -332.5t-290.5 -119.5h-2q-187 0 -311 153z" />
<glyph unicode="K" horiz-adv-x="1208" d="M217 27v1376q0 31 31 31h37q31 0 30 -31v-633l697 649q16 14 41 15h57q16 0 19.5 -12.5t-7.5 -22.5l-712 -662l735 -702q7 -5 7 -13q0 -4 -2 -8q-5 -14 -24 -14h-65q-25 0 -45 20l-701 680v-673q0 -27 -30 -27h-41q-27 0 -27 27z" />
<glyph unicode="L" horiz-adv-x="1001" d="M217 27v1380q0 27 27 27h45q10 0 17 -8.5t7 -18.5v-1321h654q27 0 26 -27v-36q0 -23 -26 -23h-723q-27 0 -27 27z" />
<glyph unicode="M" horiz-adv-x="1759" d="M102 27l291 1413q4 14 19 14h22q14 0 21 -14l422 -1258h4l424 1258q6 14 20 14h23q14 0 18 -14l291 -1413q1 -5 1 -8q0 -19 -24 -19h-49q-20 0 -24 23l-232 1200h-4l-414 -1227q-6 -16 -28 -16h-9q-23 0 -26 16l-414 1227h-4l-231 -1200q-4 -23 -25 -23h-49q-24 0 -24 19 q0 3 1 8z" />
<glyph unicode="N" horiz-adv-x="1579" d="M217 27v1400q0 27 31 27h35l983 -1280h2v1233q0 27 26 27h41q27 0 27 -27v-1401q0 -26 -31 -26h-2h-26q-14 0 -992 1292h-2v-1245q0 -27 -26 -27h-39q-27 0 -27 27z" />
<glyph unicode="O" horiz-adv-x="1705" d="M115 715q0 307 215 523t522 216q309 0 524 -216t215 -523q0 -309 -215 -522t-524 -213q-307 0 -522 214t-215 521zM205 714.5q0 -268.5 189.5 -456.5t457.5 -188t458.5 188t190.5 456.5t-190.5 459t-458.5 190.5t-457.5 -190.5t-189.5 -459z" />
<glyph unicode="P" horiz-adv-x="1216" d="M217 27v1380q0 27 27 27h440q190 0 326.5 -135.5t136.5 -323.5q0 -193 -136.5 -329t-324.5 -136h-373v-483q0 -27 -32 -27h-37q-27 0 -27 27zM313 604h367q152 0 261.5 109.5t109.5 263.5q0 150 -110 255t-263 105h-365v-733z" />
<glyph unicode="Q" horiz-adv-x="1708" d="M115 715q0 307 215 523t522 216q309 0 524 -216t215 -523q0 -231 -127 -415.5t-334 -266.5l244 -398q6 -8 2 -19t-16 -11h-68q-14 0 -26 20l-228 377q-86 -22 -178 -22h-8q-307 0 -522 214t-215 521zM205 714.5q0 -268.5 189.5 -456.5t457.5 -188t458.5 188t190.5 456.5 t-190.5 459t-458.5 190.5t-457.5 -190.5t-189.5 -459z" />
<glyph unicode="R" horiz-adv-x="1331" d="M217 27v1380q0 27 27 27h508q188 0 322 -126t134 -313q0 -152 -94 -268.5t-244 -159.5l299 -530q8 -12 4 -24.5t-18 -12.5h-63q-18 0 -29 18l-297 537q-27 -2 -76 -2h-377v-526q0 -27 -32 -27h-37q-27 0 -27 27zM315 639h433q150 0 256 103.5t106 252.5 q0 145 -107.5 244.5t-257.5 99.5h-430v-700z" />
<glyph unicode="S" horiz-adv-x="1112" d="M125 1092q0 61 25.5 121.5t74.5 115.5t138.5 90t203.5 35q90 0 178.5 -26.5t131.5 -51.5l43 -26q25 -18 8 -43q-8 -12 -17 -27q-18 -27 -45 -10q-145 96 -301 96q-172 0 -259 -84t-87 -188q0 -121 84 -190.5t256 -127.5q236 -82 347.5 -174t111.5 -258q0 -152 -133 -258 t-314 -106q-84 0 -163.5 21.5t-137 55t-86.5 53t-47 37.5q-13 10 -13 23q0 9 7 20l19 25q25 27 45 8q175 -157 375 -157h3q139 0 242 80.5t103 193.5q0 127 -96.5 202.5t-301.5 145.5q-205 72 -300 156t-95 248z" />
<glyph unicode="T" horiz-adv-x="966" d="M16 1376v31q0 27 27 27h881q27 0 26 -27v-35q0 -27 -26 -26h-394v-1319q0 -27 -32 -27h-37q-27 0 -27 27v1319h-391q-27 0 -27 30z" />
<glyph unicode="U" horiz-adv-x="1474" d="M201 522v885q0 27 26 27h43q27 0 27 -27v-875q0 -203 119 -330.5t319 -127.5q203 0 323 128t120 328v877q0 27 28 27h41q27 0 27 -27v-885q0 -238 -148.5 -390t-390.5 -152q-240 0 -387 152t-147 390z" />
<glyph unicode="V" horiz-adv-x="1333" d="M12 1407q-4 8 -4 13q0 14 21 14h55q18 0 22 -15l553 -1272h5l559 1272q4 14 22 15h53q23 0 23 -14q0 -6 -4 -15l-629 -1407q-8 -18 -24 -18h-11q-16 0 -22 18z" />
<glyph unicode="W" horiz-adv-x="1835" d="M80 1407q-1 5 -1 9q0 18 23 18h50q20 0 24 -23l344 -1200h4l361 1225q6 18 30 18h5q25 0 30 -18l363 -1225h4l342 1200q4 23 24 23h50q23 0 23 -18q0 -4 -1 -9l-405 -1413q-4 -14 -19 -14h-22q-14 0 -21 14l-368 1247h-5l-368 -1247q-6 -14 -21 -14h-22q-15 0 -19 14z " />
<glyph unicode="X" horiz-adv-x="1157" d="M72 31l444 702l-420 670q-18 31 17 31h65q18 0 27 -13l370 -602h3l374 602q10 12 27 13h65q35 0 17 -31l-422 -670l448 -702q6 -11 6 -18q0 -13 -22 -13h-65q-16 0 -27 12l-401 633h-3l-395 -633q-8 -12 -26 -12h-66q-22 0 -22 13q0 7 6 18z" />
<glyph unicode="Y" horiz-adv-x="1146" d="M-8 1424q4 10 20 10h62q16 0 26 -13l467 -637l475 637q10 12 27 13h61q16 0 20 -10q2 -3 2 -7q0 -6 -5 -14l-533 -705v-671q0 -27 -26 -27h-10h-7q-53 0 -53 27v669l-522 707q-5 8 -5 15q0 3 1 6z" />
<glyph unicode="Z" horiz-adv-x="1091" d="M61 25v36l832 1278v4h-741q-27 0 -27 31v33q0 27 27 27h843q27 0 27 -27v-33l-834 -1282v-2h764q27 0 27 -27v-36q0 -27 -27 -27h-862q-29 0 -29 25z" />
<glyph unicode="[" horiz-adv-x="675" d="M170 -590v1997q0 27 27 27h399q27 0 27 -27v-31q0 -27 -27 -26h-338v-1882h338q27 0 27 -27v-31q0 -27 -27 -26h-399q-27 0 -27 26z" />
<glyph unicode="\" horiz-adv-x="669" d="M53 1405q-4 12 3 20.5t22 8.5h28q20 0 27 -17l453 -1388q10 -29 -23 -29h-31q-20 0 -26 18z" />
<glyph unicode="]" horiz-adv-x="673" d="M53 -559q0 27 27 27h336v1882h-336q-27 0 -27 26v31q0 27 27 27h397q27 0 27 -27v-1997q0 -27 -27 -26h-397q-27 0 -27 26v31z" />
<glyph unicode="^" horiz-adv-x="1073" d="M76 829.5q-4 10.5 6 22.5l432 596q10 14 23 14h6q12 0 22 -14l430 -596q10 -12 6 -22.5t-18 -10.5h-47q-20 0 -33 17l-364 505l-365 -505q-12 -16 -33 -17h-47q-14 0 -18 10.5z" />
<glyph unicode="_" horiz-adv-x="804" d="M53 -47q0 27 27 27h645q27 0 27 -27v-21q0 -25 -27 -24h-645q-27 0 -27 24v21z" />
<glyph unicode="`" horiz-adv-x="618" d="M147 1337l21 41q10 18 35 6l336 -184q18 -10 12 -29l-10 -20q-8 -16 -33 -6l-352 162q-18 10 -9 30z" />
<glyph unicode="a" horiz-adv-x="874" d="M90 252q0 121 93 198.5t251 77.5q106 0 207 -36q0 150 -34 210t-146 60q-39 0 -76 -5t-64.5 -13.5t-49 -15.5t-38 -14t-18.5 -7q-23 -8 -31 16l-10 25q-8 23 12 30q10 6 37 18.5t97.5 28t146.5 15.5q74 0 123 -18.5t76.5 -46t41 -80t16.5 -95.5t3 -119v-454 q0 -27 -27 -27h-24q-18 0 -25 23l-8 73q-126 -116 -282 -116h-3q-117 0 -192.5 74.5t-75.5 197.5zM174 254q0 -88 54.5 -141.5t140.5 -53.5t161.5 41t110.5 86v226q-92 43 -207 43q-117 0 -188.5 -55.5t-71.5 -145.5z" />
<glyph unicode="b" d="M156 27v1380q0 27 26 27h35q27 0 27 -27v-649q10 8 31.5 22.5t87 37t135.5 22.5q172 0 286.5 -123t114.5 -305q0 -180 -109.5 -306t-267.5 -126q-102 0 -177 40.5t-107 79.5l-7 -73q-2 -27 -28 -27h-21q-26 0 -26 27zM246 207q8 -14 31.5 -43t91 -66t145.5 -37 q127 0 212 101.5t85 247.5q0 147 -91 244.5t-233 97.5q-66 0 -126 -21.5t-87 -42.5l-28 -22v-459z" />
<glyph unicode="c" horiz-adv-x="940" d="M94 409.5q0 182.5 127 306.5t303 124q106 0 186.5 -41t116.5 -88q16 -20 -4 -37l-20 -21q-20 -18 -43 4q-27 31 -89.5 63t-146.5 32q-141 0 -239.5 -97.5t-98.5 -242.5q0 -147 98.5 -246.5t237.5 -99.5q145 0 256 120q20 23 39 4l23 -20q10 -10 10 -20q0 -6 -4 -13 q-33 -51 -121 -104t-201 -53q-176 0 -303 123.5t-127 306z" />
<glyph unicode="d" d="M96 410q0 182 115 306t289 124q70 0 132 -20.5t91 -41.5l29 -20v649q0 27 26 27h37q10 0 17.5 -8.5t7.5 -18.5v-1380q0 -27 -27 -27h-20q-27 0 -29 27l-6 71q-110 -118 -280 -118h-3q-160 0 -269.5 125t-109.5 305zM186 410q0 -145 84 -247t211 -102q80 0 147.5 37t91 66 t32.5 43v459q-10 10 -30 24.5t-84.5 38t-129.5 23.5q-141 0 -231.5 -97.5t-90.5 -244.5z" />
<glyph unicode="e" horiz-adv-x="956" d="M96 412q0 180 110.5 304t293.5 124q162 0 266 -105.5t104 -269.5q0 -80 -30 -80h-654q6 -135 95.5 -229.5t224.5 -94.5q129 0 242 76q25 16 36 0l21 -28q10 -14 -8 -33q-35 -35 -122 -65.5t-175 -30.5q-182 0 -293 124t-111 308zM188 459h592q0 127 -73.5 213t-206.5 86 t-218.5 -85t-93.5 -214z" />
<glyph unicode="f" horiz-adv-x="641" d="M57 766v27q0 27 27 26h123v281q0 174 85 264t224 90q74 0 138.5 -27.5t90.5 -60.5q9 -11 9 -21q0 -6 -4 -12l-21 -28q-14 -23 -35 -2q-73 69 -175 69h-3q-100 0 -159.5 -67.5t-59.5 -204.5v-281h303q27 0 27 -24v-31q0 -25 -27 -25h-303v-712q0 -27 -27 -27h-37 q-26 0 -26 27v712h-123q-27 0 -27 27z" />
<glyph unicode="g" horiz-adv-x="946" d="M72 70q0 61 31.5 114.5t56 72.5t47.5 32q-63 80 -64 205q0 150 98.5 248t260.5 98h336q27 0 26 -27v-22q0 -20 -18 -25l-148 -10q27 -14 51.5 -39t50 -85.5t25.5 -137.5q0 -141 -94 -240.5t-246 -99.5q-156 0 -223 73q-14 -6 -34.5 -19t-45 -49t-24.5 -79 q0 -119 161 -119h297q139 0 221.5 -65.5t82.5 -196.5q0 -135 -118 -234.5t-300 -99.5q-193 0 -296.5 92t-103.5 211q0 135 129 215q-49 10 -104 58.5t-55 128.5zM193 -322q0 -90 82.5 -159.5t224.5 -69.5q137 0 231 71.5t94 176.5q0 78 -51 129t-158 51h-258 q-16 -2 -52 -20.5t-74.5 -67t-38.5 -111.5zM227 495.5q0 -112.5 68.5 -187.5t191.5 -75q113 0 182.5 75t69.5 188q0 123 -72.5 192.5t-179.5 69.5q-117 0 -188.5 -75t-71.5 -187.5z" />
<glyph unicode="h" horiz-adv-x="1013" d="M156 27v1380q0 27 28 27h33q27 0 27 -27v-698q131 131 297 131q160 0 244.5 -96.5t84.5 -278.5v-438q0 -27 -26 -27h-37q-27 0 -27 27v438q0 141 -63.5 214t-179.5 73q-76 0 -150 -37t-101.5 -62.5t-41.5 -44.5v-581q0 -27 -27 -27h-39q-22 0 -22 27z" />
<glyph unicode="i" horiz-adv-x="401" d="M131 1288.5q0 28.5 20.5 50t49 21.5t49 -21.5t20.5 -50t-20.5 -48t-49 -19.5t-49 19.5t-20.5 48zM156 27v766q0 26 24 26h2h37q27 0 27 -26v-766q0 -27 -27 -27h-41q-22 0 -22 27z" />
<glyph unicode="j" horiz-adv-x="399" d="M-289 -518l21 33q14 20 35 0q88 -68 178 -68q211 0 211 272v1074q0 27 26 26h35q27 0 27 -26v-1074q0 -176 -80 -265t-219 -89q-72 0 -134.5 27.5t-95.5 60.5q-8 8 -8 17q0 6 4 12zM129 1288.5q0 28.5 20.5 50t49 21.5t49 -21.5t20.5 -50t-20.5 -48t-49 -19.5t-49 19.5 t-20.5 48z" />
<glyph unicode="k" horiz-adv-x="876" d="M156 27v1380q0 27 26 27h35q27 0 27 -27v-918l436 318q16 12 33 12h59q18 0 16 -20q0 -10 -10 -17l-440 -323l493 -424q9 -7 9 -16q0 -3 -2 -7q-4 -12 -17 -12h-63q-20 0 -41 16l-473 408v-397q0 -27 -27 -27h-39q-22 0 -22 27z" />
<glyph unicode="l" horiz-adv-x="401" d="M156 27v1380q0 27 26 27h37q27 0 27 -27v-1380q0 -27 -27 -27h-41q-22 0 -22 27z" />
<glyph unicode="m" horiz-adv-x="1562" d="M156 27v766q0 27 26 26h25q18 0 22 -20l11 -88q16 23 45.5 48t95 53t141.5 28q188 0 269 -150q18 25 52 54.5t106.5 62.5t148.5 33q319 0 319 -375v-438q0 -27 -26 -27h-41q-23 0 -23 27v438q0 287 -235 287q-158 0 -271 -140q18 -63 19 -147v-438q0 -27 -27 -27h-39 q-25 0 -24 27v438q0 141 -61.5 214t-176.5 73q-74 0 -139.5 -35t-90 -61.5t-36.5 -45.5v-583q0 -27 -27 -27h-41q-22 0 -22 27z" />
<glyph unicode="n" horiz-adv-x="1013" d="M156 27v766q0 27 28 26h21q20 0 24 -20l9 -88q20 23 53 47t104.5 53t145.5 29q168 0 248.5 -98.5t80.5 -276.5v-438q0 -27 -26 -27h-37q-27 0 -27 27v438q0 141 -63.5 214t-179.5 73q-76 0 -149 -36t-101.5 -62.5t-42.5 -43.5v-583q0 -27 -27 -27h-39q-22 0 -22 27z" />
<glyph unicode="o" horiz-adv-x="1011" d="M94 412q0 176 120 302t292 126t292 -126t120 -302q0 -180 -120 -306t-292 -126t-292 126t-120 306zM182 412q0 -145 93.5 -247t230.5 -102q135 0 228 101.5t93 247.5q0 141 -93 241.5t-228 100.5t-229.5 -100.5t-94.5 -241.5z" />
<glyph unicode="p" horiz-adv-x="997" d="M156 -588v1381q0 27 28 26h23q23 0 24 -20l7 -58q119 98 268 99q170 0 282.5 -125t112.5 -305q0 -182 -116.5 -306t-297.5 -124h-4q-148 0 -239 83v-651q0 -26 -25 -26h-2h-35q-27 0 -26 26zM246 162q4 -8 29.5 -28.5t83 -44t118.5 -23.5q147 0 240.5 99t93.5 247 q0 145 -87 244.5t-224 99.5q-72 0 -134.5 -29t-87 -51.5t-32.5 -34.5v-479z" />
<glyph unicode="q" d="M96 410q0 182 111.5 306t281.5 124q150 0 269 -99l8 56q2 23 27 22h22q10 0 17.5 -8t7.5 -18v-1381q0 -10 -7.5 -18t-17.5 -8h-37q-27 0 -26 26v654q-94 -86 -242 -86q-180 0 -297 123t-117 307zM186 412q0 -147 92.5 -246.5t239.5 -99.5q61 0 119.5 22.5t82 40.5 t32.5 31v481q-10 14 -33 34.5t-86.5 50.5t-134.5 30q-139 0 -225.5 -99.5t-86.5 -244.5z" />
<glyph unicode="r" horiz-adv-x="663" d="M156 27v766q0 27 26 26h25q20 0 24 -22l9 -84q90 127 256 127q61 0 127 -25q25 -8 25 -25q0 -6 -3 -12l-16 -41q-8 -20 -33 -10q-61 25 -107 25q-72 0 -132 -36t-81.5 -62.5t-29.5 -43.5v-583q0 -27 -27 -27h-41q-22 0 -22 27z" />
<glyph unicode="s" horiz-adv-x="757" d="M100 627q0 80 70 146.5t199 66.5q131 0 231 -66q23 -14 8 -39l-12 -22q-14 -25 -39 -11q-86 57 -188 58q-88 0 -132 -41t-44 -90q0 -57 47 -92t147 -72q76 -29 114 -45.5t86 -48t68.5 -71.5t20.5 -93q0 -92 -85 -159.5t-206 -67.5q-149 0 -268 92q-18 12 -8 28l20 33 q14 23 37 2q100 -80 219 -80q86 0 141.5 42t55.5 104q0 63 -53.5 101t-176.5 83q-123 43 -187.5 98.5t-64.5 143.5z" />
<glyph unicode="t" horiz-adv-x="673" d="M70 766v33q0 20 24 20h96v223q0 27 27 27l35 2q27 0 27 -27v-225h284q27 0 27 -26v-27q0 -27 -27 -27h-284v-522q0 -82 19 -115.5t87 -33.5q96 0 186 55q20 12 33 -8l14 -25q5 -9 5 -17q0 -11 -11 -18q-93 -75 -233 -75h-4q-117 0 -151 57t-34 174v528h-96q-25 0 -24 27z " />
<glyph unicode="u" horiz-adv-x="993" d="M143 352v441q0 26 25 26h2h37q27 0 26 -26v-441q0 -141 62.5 -213.5t181.5 -72.5q76 0 143.5 36.5t92 63.5t35.5 43v584q0 26 24 26h2h37q27 0 27 -26v-766q0 -27 -27 -27h-25q-20 0 -24 25l-8 79q-16 -23 -46 -47t-96.5 -50.5t-140.5 -26.5h-2q-326 0 -326 372z" />
<glyph unicode="v" horiz-adv-x="835" d="M35 788q-5 11 -5 18q0 13 17 13h45q18 0 27 -18l297 -676h2l299 676q8 18 26 18h45q18 0 18 -13q0 -7 -5 -18l-357 -790q-10 -18 -24 -18h-8q-17 0 -25 18z" />
<glyph unicode="w" horiz-adv-x="1241" d="M70 786q-3 10 -3 17q0 16 15 16h45q20 0 27 -18l192 -645h2l244 665q6 18 24 19h9q18 0 24 -19l244 -665h2l192 645q6 18 27 18h45q16 0 16 -15q0 -7 -4 -18l-245 -788q-6 -18 -25 -18h-8q-18 0 -25 18l-247 690h-3l-245 -690q-6 -18 -25 -18h-8q-19 0 -25 18z" />
<glyph unicode="x" horiz-adv-x="856" d="M68 10q-1 3 -1 6q0 6 5 13l301 391l-285 371q-8 10 -4 19t16 9h54q18 0 30 -18l240 -318h2l242 318q12 18 30 18h54q12 0 16 -9t-4 -19l-283 -369l297 -393q5 -7 5 -13q0 -2 -1 -6q-4 -10 -16 -10h-53q-18 0 -31 18l-256 342h-2l-256 -342q-12 -18 -31 -18h-53 q-12 0 -16 10z" />
<glyph unicode="y" horiz-adv-x="907" d="M31 786q-6 12 -6 20q0 13 18 13h45q18 0 27 -18l350 -692h4l319 692q10 18 27 18h45q18 0 18 -13q0 -8 -6 -20l-643 -1384q-6 -16 -26 -16h-47q-27 0 -15 28l277 594z" />
<glyph unicode="z" horiz-adv-x="759" d="M70 23v22l481 686v6h-418q-25 0 -24 27v29q0 26 22 26h2h531q16 0 23 -12q3 -6 3 -12q0 -7 -4 -15l-479 -692v-6h424q27 0 26 -27v-28q0 -27 -26 -27h-537q-24 0 -24 23z" />
<glyph unicode="{" horiz-adv-x="747" d="M53 397v33q0 12 19 19q150 49 149 182v327q0 135 39 235.5t104.5 155t140.5 80t161 25.5q29 0 28 -24v-25q0 -20 -20 -25q-172 -12 -268.5 -116.5t-96.5 -307.5v-325q0 -63 -34.5 -117.5t-59.5 -72t-45 -27.5v-2q6 -2 18.5 -9.5t35 -26t41 -42t31.5 -60t13 -77.5v-334 q0 -203 96.5 -307.5t268.5 -116.5q20 -4 20 -25v-24q0 -25 -28 -25q-86 0 -161 25.5t-140.5 80t-104.5 155t-39 235.5v336q0 133 -149 182q-18 6 -19 18z" />
<glyph unicode="|" horiz-adv-x="399" d="M168 -590v2118q0 27 27 26h12q25 0 24 -26v-2118q0 -25 -26 -24h-10q-27 -1 -27 24z" />
<glyph unicode="}" horiz-adv-x="747" d="M53 -586q0 20 21 25q172 12 268 116.5t96 307.5v334q0 49 18.5 91t47 68.5t44 38t30.5 17.5v2q-12 6 -27.5 17t-45.5 37t-48.5 69t-18.5 94v325q0 203 -96 307.5t-268 116.5q-20 4 -21 25v25q0 25 29 24q86 0 160.5 -25.5t140.5 -80t104.5 -154.5t38.5 -236v-327 q0 -133 150 -182q18 -6 18 -19v-33q0 -12 -18 -18q-150 -49 -150 -182v-336q0 -135 -38.5 -235.5t-104.5 -155t-140.5 -80t-160.5 -25.5q-29 0 -29 25v24z" />
<glyph unicode="~" horiz-adv-x="1175" d="M135 543q4 8 12.5 21.5t35 46t55 58t74.5 47t96 21.5q109 0 215 -110q86 -92 161 -92q20 0 40 4t36.5 13t30.5 18.5t27.5 23.5t22.5 24.5t19.5 24.5t14.5 21.5t10 17.5l6 10q16 23 35 6l27 -18q20 -14 6 -33q-4 -8 -12.5 -21.5t-35 -46t-56 -58t-75.5 -47t-96 -21.5 q-96 0 -209 108q-92 92 -167 92q-20 0 -40 -4t-36.5 -13t-30.5 -18.5t-26.5 -22.5t-21.5 -24.5t-19.5 -26t-14.5 -21.5t-10 -17l-6 -10q-14 -21 -37 -7l-27 21q-16 14 -4 33z" />
<glyph unicode="&#xa0;" horiz-adv-x="536" d="M49 1337l21 41q12 20 34 6l338 -178q20 -12 13 -28l-13 -27q-8 -16 -28 -8l-346 157q-29 14 -19 37z" />
<glyph unicode="&#xa1;" horiz-adv-x="460" d="M147 758q0 35 24 58.5t58.5 23.5t59 -24.5t24.5 -57.5q0 -35 -24.5 -58.5t-59 -23.5t-58.5 23.5t-24 58.5zM176 -340l19 584q0 8 8 16t18 8h17q10 0 18 -7t8 -17l21 -582v-250q0 -27 -31 -26h-51q-27 0 -27 26v248z" />
<glyph unicode="&#xa2;" horiz-adv-x="911" d="M72 410q0 182 127 306t303 124q33 0 63 -6l21 81q6 20 32 17l11 -2q27 -4 18 -33l-20 -78q121 -35 178 -108q16 -20 -4 -37l-23 -21q-18 -16 -41 6q-51 51 -133 74l-178 -661q37 -6 74 -6q29 0 55.5 4t47 10t41 16t34.5 18.5t29.5 20.5t22.5 19.5t17.5 16.5t12.5 11 q20 23 39 4l16 -14q18 -18 8 -35q-33 -51 -121 -104t-200 -53q-61 0 -101 10l-47 -185q-6 -20 -32 -16l-11 2q-27 4 -18 31l47 186q-119 47 -193.5 154.5t-74.5 247.5zM164 412q0 -109 55.5 -194t145.5 -124l176 654q-25 4 -39 4q-141 0 -239.5 -97.5t-98.5 -242.5z" />
<glyph unicode="&#xa3;" horiz-adv-x="1060" d="M135 649v8q0 10 8.5 17.5t18.5 7.5h74q-2 6 -24 88t-32 143.5t-10 126.5q0 182 121 298t295 116q123 0 223 -51t135 -98q16 -23 -4 -45l-16 -19q-20 -20 -45 4q-123 123 -297 123q-133 0 -227.5 -92t-94.5 -238q0 -63 11.5 -127.5t32 -139.5t22.5 -89h413q27 0 27 -29v-8 q0 -27 -27 -27h-397q12 -74 12 -165q-4 -201 -75 -369h614q25 0 25 -29v-30q0 -25 -25 -25h-700q-10 0 -18.5 9.5t-6.5 19.5v18q47 109 74.5 221.5t23.5 184.5q0 72 -16 165h-88q-27 0 -27 31z" />
<glyph unicode="&#xa4;" horiz-adv-x="1005" d="M174 389l109 109q-53 72 -53.5 162t53.5 159l-109 107q-14 20 4 37l21 22q16 14 39 4l104 -108q74 55 162 54t160 -56l108 108q18 18 37 -6l22 -18q14 -20 0 -39l-104 -105q51 -72 51 -161t-51 -158l104 -105q14 -20 -6 -39l-20 -22q-18 -16 -37 -2l-104 104 q-72 -53 -161 -53t-161 53l-104 -108q-19 -10 -39 4l-21 24q-23 14 -4 33zM309.5 657q0.5 -82 57.5 -139q57 -55 139 -56t139 56t57 139t-57 139.5t-139 57.5t-139.5 -57.5t-57 -139.5z" />
<glyph unicode="&#xa5;" horiz-adv-x="1269" d="M53 1424.5q4 9.5 21 9.5h61q16 0 27 -13l467 -639l475 639q10 12 26 13h62q16 0 20.5 -9.5t-4.5 -21.5l-532 -705v-106h307q25 0 25 -27v-12q0 -25 -25 -25h-307v-180h307q25 0 25 -26v-13q0 -25 -25 -24h-307v-258q0 -27 -27 -27h-45q-25 0 -24 27v258h-308 q-25 0 -24 24v13q0 27 24 26h308v180h-308q-25 0 -24 25v12q0 27 24 27h308v104l-523 707q-8 12 -4 21.5z" />
<glyph unicode="&#xa6;" horiz-adv-x="735" d="M336 119q0 27 26 26h13q25 0 24 -26v-709q0 -25 -26 -24h-11q-27 0 -26 24v709zM336 821v707q0 27 26 26h13q25 0 24 -26v-707q0 -27 -26 -26h-11q-27 0 -26 26z" />
<glyph unicode="&#xa7;" horiz-adv-x="1091" d="M102 592q0 127 134 246q-131 123 -132 266q0 133 112 241.5t329 108.5q90 0 178 -26.5t129 -51.5l43 -26q27 -14 8 -41l-20 -31q-16 -23 -41 -8q-164 98 -297 98q-174 0 -260 -80t-86 -184q0 -113 86 -185.5t250 -123.5q229 -76 339.5 -162t110.5 -236q0 -27 -6 -51 t-18.5 -48t-22.5 -42t-28.5 -38.5t-28 -30l-25.5 -25.5l-16 -17q143 -119 143 -278q0 -145 -129 -241.5t-305 -96.5q-104 0 -206.5 39t-144.5 68.5t-71 54.5q-23 23 -6 43l26 33q18 23 39 2q23 -23 60 -50.5t127 -65.5t178 -38q131 0 231.5 70.5t100.5 179.5 q0 119 -95.5 194.5t-289.5 141.5q-190 63 -293 153t-103 238zM199 596q0 -115 80.5 -180.5t246.5 -122.5q135 -41 238 -100l14 12q14 12 21.5 19t22 22.5t23.5 30t18 33t14.5 40t5.5 41.5q0 115 -92.5 182.5t-292.5 135.5q-127 35 -193 84q-31 -29 -45 -43.5t-37.5 -60.5 t-23.5 -93z" />
<glyph unicode="&#xa8;" horiz-adv-x="847" d="M193 1288q0 31 20 51.5t49 20.5q31 0 50.5 -20.5t19.5 -51.5q0 -29 -19.5 -48t-50.5 -19q-29 0 -49 19.5t-20 47.5zM586 1288q0 31 19.5 51.5t47.5 20.5q31 0 51.5 -20.5t20.5 -51.5q0 -29 -20.5 -48t-51.5 -19q-29 0 -48 19.5t-19 47.5z" />
<glyph unicode="&#xa9;" horiz-adv-x="1705" d="M115 717q0 305 216 521t521 216t522 -217t217 -520q0 -305 -217 -521t-522 -216t-521 216t-216 521zM195 716.5q0 -272.5 192.5 -465t464.5 -192.5t464.5 192.5t192.5 465t-192.5 464t-464.5 191.5t-464.5 -191.5t-192.5 -464zM481 712.5q0 161.5 114 275.5t275 114 q143 0 238 -78q23 -18 4 -39l-18 -22q-14 -18 -35 -2q-76 59 -187 59q-127 0 -214 -89t-87 -216t87 -215t214 -88q100 0 185 63q23 16 39 -4l18 -25q12 -20 -2 -34q-96 -88 -242 -88q-162 0 -275.5 113.5t-113.5 275z" />
<glyph unicode="&#xaa;" horiz-adv-x="663" d="M82 1026q0 88 67.5 143.5t182.5 55.5q84 0 143 -23q0 106 -22.5 146.5t-100.5 40.5q-80 0 -176 -41q-18 -6 -22 10l-9 26q-6 16 11 25q90 45 200 45q55 0 91 -15.5t55.5 -35t29 -62.5t11.5 -73.5t2 -91.5v-316q0 -20 -21 -20h-22q-16 0 -21 16l-6 47q-93 -78 -199 -78 q-84 0 -139 55.5t-55 145.5zM145 1028q0 -61 39 -100t98.5 -39t113 27.5t77.5 60.5v164q-80 29 -145 28q-80 0 -131.5 -41t-51.5 -100z" />
<glyph unicode="&#xab;" horiz-adv-x="829" d="M94 408q-12 14 0 34l221 316q12 18 33 18h33q12 0 15 -11t-5 -26l-192 -313l192 -322q8 -14 5 -25t-15 -11h-33q-21 0 -33 18zM422 408q-12 14 0 34l221 316q12 18 33 18h33q12 0 15 -11t-5 -26l-193 -313l193 -322q8 -14 5 -25t-15 -11h-33q-20 0 -33 18z" />
<glyph unicode="&#xac;" horiz-adv-x="1087" d="M98 696v31q0 27 27 27h788q25 0 25 -27v-410q0 -25 -27 -24h-32q-27 0 -27 24v353h-727q-27 0 -27 26z" />
<glyph unicode="&#xad;" horiz-adv-x="710" d="M98 500v22q0 27 25 27h463q27 0 26 -27v-22q0 -27 -26 -27h-463q-25 0 -25 27z" />
<glyph unicode="&#xae;" horiz-adv-x="1708" d="M115 717q0 305 216 521t521 216t522 -217t217 -520q0 -305 -217 -521t-522 -216t-521 216t-216 521zM195 716.5q0 -272.5 192.5 -465t464.5 -192.5t464.5 192.5t192.5 465t-192.5 464t-464.5 191.5t-464.5 -191.5t-192.5 -464zM590 369v702q0 27 24 27h299 q109 0 185 -59.5t76 -172.5q0 -100 -59.5 -157.5t-135.5 -71.5l143 -262q6 -10 2 -20.5t-18 -10.5h-47q-18 0 -29 21l-137 266h-29h-192v-262q0 -27 -25 -27h-33q-24 0 -24 27zM672 707h241q72 0 124.5 44t52.5 115q0 158 -201 158h-217v-317z" />
<glyph unicode="&#xaf;" horiz-adv-x="847" d="M119 1243v27q0 27 26 26h557q27 0 27 -26v-27q0 -25 -27 -24h-557q-27 0 -26 24z" />
<glyph unicode="&#xb0;" horiz-adv-x="716" d="M76 1173.5q0 118.5 82 200.5t200 82q117 0 200 -83t83 -199.5t-83 -199.5t-200 -83q-119 0 -200.5 82t-81.5 200.5zM147 1174q0 -86 62.5 -148.5t148.5 -62.5q84 0 146.5 62t62.5 149q0 84 -62.5 146t-146.5 62q-86 0 -148.5 -62.5t-62.5 -145.5z" />
<glyph unicode="&#xb1;" horiz-adv-x="1257" d="M209 178v31q0 27 27 27h788q25 0 25 -27v-31q0 -27 -25 -26h-788q-27 -1 -27 26zM209 809v31q0 27 27 26h350v344q0 25 26 25h33q27 0 27 -25v-344h352q25 0 25 -26v-31q0 -27 -25 -27h-352v-258q0 -27 -27 -26h-33q-26 -1 -26 26v258h-350q-27 0 -27 27z" />
<glyph unicode="&#xb2;" horiz-adv-x="655" d="M111 1049v18l284 266q72 68 74 135q0 49 -39 86t-108 37q-72 0 -140 -67q-10 -12 -20 -2l-27 24q-10 10 -2 20.5t22.5 26t64.5 41t106 25.5q102 0 159.5 -53.5t57.5 -130.5q0 -92 -94 -181l-218 -198h293q14 0 15 -17v-30q0 -16 -15 -17h-395q-18 0 -18 17z" />
<glyph unicode="&#xb3;" horiz-adv-x="647" d="M106 1096q-12 10 0 22l23 23q14 14 27 0l8 -8q8 -8 13 -12.5t16.5 -11.5t23.5 -12t27.5 -10.5t35 -8.5t39.5 -3q70 0 114 33t44 84q0 49 -43 83t-123 34h-92q-16 0 -16 20v25q0 16 16 16h92q66 0 108 28.5t42 84.5q0 49 -39 79.5t-100 30.5q-84 0 -146 -61 q-12 -12 -20 -2l-27 22q-12 12 -2 23q8 10 23.5 23.5t67.5 37t108 23.5q92 0 151.5 -45t59.5 -123q0 -47 -32 -88t-75 -60q4 -2 13.5 -5t31 -16t37.5 -28.5t29.5 -44t13.5 -61.5q0 -76 -65.5 -126t-167.5 -50q-145 0 -216 84z" />
<glyph unicode="&#xb4;" horiz-adv-x="618" d="M147 1178q-8 16 13 28l338 178q23 14 34 -6l21 -41q10 -23 -18 -37l-347 -157q-20 -8 -28 8z" />
<glyph unicode="&#xb5;" horiz-adv-x="1034" d="M160 -588v1381q0 27 26 26h37q27 0 27 -26v-441q0 -141 62.5 -213.5t181.5 -72.5q76 0 143.5 36.5t92 63.5t34.5 43v584q0 27 27 26h36q27 0 27 -26v-766q0 -27 -27 -27h-24q-20 0 -25 25l-8 79q-16 -23 -46 -47t-96.5 -50.5t-140.5 -26.5q-78 0 -143 30.5t-94 75.5v-674 q0 -27 -29 -26h-35q-27 0 -26 26z" />
<glyph unicode="&#xb6;" horiz-adv-x="1402" d="M53 1004q0 178 117 304t287 126h876q27 0 27 -27v-25q0 -27 -27 -26h-219v-1944q0 -27 -27 -26h-22q-27 0 -27 26v1944h-358v-1944q0 -27 -27 -26h-22q-27 0 -27 26v1168h-147q-176 0 -290 127t-114 297z" />
<glyph unicode="&#xb7;" horiz-adv-x="477" d="M156 535q0 35 24.5 58t59 23t58.5 -23.5t24 -58t-24 -58t-58.5 -23.5t-59 24.5t-24.5 57.5z" />
<glyph unicode="&#xb8;" horiz-adv-x="505" d="M80 -438q-14 23 2 37l20 16q14 12 33 -6q37 -43 105 -43q53 0 86.5 36t33.5 87q0 117 -188 139q-25 6 -25 27v145h74v-111q98 -12 158.5 -62t60.5 -136q0 -82 -57 -140.5t-143 -58.5q-55 0 -99.5 21.5t-60.5 48.5z" />
<glyph unicode="&#xb9;" horiz-adv-x="382" d="M57 1509q-6 12 6 23l150 106h25q20 0 20 -16v-573q0 -16 -16 -17h-41q-16 0 -17 17v493l-96 -57q-12 -6 -18 4z" />
<glyph unicode="&#xba;" horiz-adv-x="677" d="M88 1128q0 152 65.5 239t184.5 87t185.5 -86t66.5 -240q0 -150 -66.5 -235.5t-185.5 -85.5q-117 0 -183.5 86t-66.5 235zM162 1128q0 -119 46 -186.5t130 -67.5t131 67t47 187.5t-47 190.5t-131 70q-82 0 -129 -70t-47 -191z" />
<glyph unicode="&#xbb;" horiz-adv-x="829" d="M105.5 79q-3.5 11 5.5 25l192 322l-192 313q-8 14 -5 25.5t15 11.5h33q20 0 32 -18l222 -316q12 -20 0 -34l-222 -322q-12 -18 -32 -18h-33q-12 0 -15.5 11zM433 764.5q3 11.5 16 11.5h32q20 0 33 -18l221 -316q12 -20 0 -34l-221 -322q-12 -18 -33 -18h-32 q-12 0 -15.5 11t4.5 25l193 322l-193 313q-8 14 -5 25.5z" />
<glyph unicode="&#xbc;" horiz-adv-x="1300" d="M96 1305q-6 12 6 22l150 107h24q20 0 21 -17v-573q0 -16 -16 -17h-41q-16 0 -17 17v493l-96 -57q-12 -6 -18 4zM154 29l786 1394q6 10 27 11h30q31 0 17 -29l-787 -1395q-6 -10 -26 -10h-31q-30 0 -16 29zM645 160v18l387 428h29q20 0 20 -18v-379h80q18 0 19 -16v-33 q0 -16 -19 -17h-80v-125q0 -18 -20 -18h-35q-20 0 -20 18v123h-342q-19 1 -19 19zM762 211h244v266z" />
<glyph unicode="&#xbd;" horiz-adv-x="1370" d="M96 1305q-6 12 6 22l150 107h24q20 0 21 -17v-573q0 -16 -16 -17h-41q-16 0 -17 17v493l-96 -57q-12 -6 -18 4zM154 29l786 1394q6 10 27 11h30q31 0 17 -29l-787 -1395q-6 -10 -26 -10h-31q-30 0 -16 29zM793 16v19l284 266q72 68 74 135q0 49 -39 86t-108 37 q-72 0 -140 -67q-10 -12 -20 -3l-27 25q-10 10 -2 20.5t22.5 25.5t64.5 41t106 26q102 0 159.5 -53.5t57.5 -131.5q0 -92 -95 -180l-217 -199h293q14 0 15 -16v-31q0 -16 -15 -16h-395q-18 0 -18 16z" />
<glyph unicode="&#xbe;" horiz-adv-x="1445" d="M100 891q-10 10 0 22l23 23q12 14 27 0l8 -8q8 -8 13 -12.5t16.5 -11.5t23.5 -12t27.5 -10t35 -8.5t39.5 -3.5q70 0 114 33t44 84q0 49 -43 83t-123 34h-92q-16 0 -16 20v25q0 16 16 16h92q66 0 108 29t42 84q0 49 -39 80t-101 31q-84 0 -145 -62q-10 -12 -20 -2l-27 23 q-12 12 -2 22q8 10 23.5 23.5t67.5 37t107 23.5q92 0 151.5 -45t59.5 -123q0 -47 -31.5 -88t-74.5 -59q4 -2 13 -5.5t30.5 -16.5t38 -28.5t30 -44t13.5 -61.5q0 -76 -66 -126t-168 -50q-145 0 -215 84zM297 29l786 1394q6 10 27 11h31q31 0 16 -29l-786 -1395 q-6 -10 -27 -10h-31q-30 0 -16 29zM788 160v18l388 428h28q20 0 21 -18v-379h80q18 0 18 -16v-33q0 -16 -18 -17h-80v-125q0 -18 -21 -18h-35q-20 0 -20 18v123h-342q-19 1 -19 19zM905 211h244v266z" />
<glyph unicode="&#xbf;" horiz-adv-x="489" d="M-135 -346q0 76 36 137.5t86 101t100 73.5t86 72t36 77v116q0 29 27 29h38q25 0 25 -29v-118q0 -66 -53 -125.5t-118 -98.5t-118 -99t-53 -130q0 -86 68.5 -149.5t183.5 -63.5q39 0 74.5 6t63.5 18.5t50.5 24.5t41 28.5t29.5 28t22.5 23.5t13.5 14q14 14 35 2l20 -14 q23 -14 6 -39q-4 -6 -13 -18.5t-42 -42t-72 -53t-102.5 -42t-132.5 -18.5q-154 0 -246 81t-92 208zM172 758q0 35 24.5 58.5t59.5 23.5t58.5 -24.5t23.5 -57.5q0 -35 -23.5 -58.5t-58.5 -23.5t-59.5 23.5t-24.5 58.5z" />
<glyph unicode="&#xc0;" horiz-adv-x="1337" d="M12 25l631 1425q8 14 25 14h6q18 0 26 -14l625 -1425q8 -25 -18 -25h-54q-20 0 -28 18l-166 377h-783l-163 -377q-10 -18 -29 -18h-57q-23 0 -15 25zM313 475h711l-350 825h-4zM496 1794l20 41q10 18 35 6l336 -184q18 -10 12 -29l-10 -20q-8 -16 -33 -6l-352 161 q-18 10 -8 31z" />
<glyph unicode="&#xc1;" horiz-adv-x="1337" d="M12 25l631 1425q8 14 25 14h6q18 0 26 -14l625 -1425q8 -25 -18 -25h-54q-20 0 -28 18l-166 377h-783l-163 -377q-10 -18 -29 -18h-57q-23 0 -15 25zM313 475h711l-350 825h-4zM494 1628q-6 18 12 29l336 184q25 12 35 -6l20 -41q10 -20 -8 -31l-352 -161q-25 -10 -33 6z " />
<glyph unicode="&#xc2;" horiz-adv-x="1337" d="M12 25l631 1425q8 14 25 14h6q18 0 26 -14l625 -1425q8 -25 -18 -25h-54q-20 0 -28 18l-166 377h-783l-163 -377q-10 -18 -29 -18h-57q-23 0 -15 25zM313 475h711l-350 825h-4zM395 1599q-10 14 8 29l248 201q10 10 21 10h6q10 0 20 -10l248 -201q18 -14 8 -29l-18 -22 q-12 -16 -31 -4l-231 172l-230 -172q-18 -12 -30 4z" />
<glyph unicode="&#xc3;" horiz-adv-x="1337" d="M12 25l631 1425q8 14 25 14h6q18 0 26 -14l625 -1425q8 -25 -18 -25h-54q-20 0 -28 18l-166 377h-783l-163 -377q-10 -18 -29 -18h-57q-23 0 -15 25zM313 475h711l-350 825h-4zM371 1675q49 125 116 160q35 16 74 16q49 0 84 -28.5t50.5 -64.5t40 -64.5t57.5 -28.5 q76 0 116 121q8 27 31 14l23 -8q16 -8 12 -27q-4 -16 -12.5 -35.5t-29 -56.5t-59 -60.5t-88 -23.5t-83 30t-50 64.5t-42 64.5t-56.5 30q-76 0 -117 -127q-5 -25 -30 -15l-25 11q-20 6 -12 28z" />
<glyph unicode="&#xc4;" horiz-adv-x="1337" d="M12 25l631 1425q8 14 25 14h6q18 0 26 -14l625 -1425q8 -25 -18 -25h-54q-20 0 -28 18l-166 377h-783l-163 -377q-10 -18 -29 -18h-57q-23 0 -15 25zM313 475h711l-350 825h-4zM393 1708q0 31 20.5 51.5t49.5 20.5q31 0 51.5 -20.5t20.5 -51.5q0 -29 -20.5 -48.5 t-51.5 -19.5q-29 0 -49.5 19.5t-20.5 48.5zM821 1708q0 31 20.5 51.5t49.5 20.5q31 0 51.5 -20.5t20.5 -51.5q0 -29 -20.5 -48.5t-51.5 -19.5q-29 0 -49.5 19.5t-20.5 48.5z" />
<glyph unicode="&#xc5;" horiz-adv-x="1337" d="M12 25l631 1425q8 14 25 14h6q18 0 26 -14l625 -1425q8 -25 -18 -25h-54q-20 0 -28 18l-166 377h-783l-163 -377q-10 -18 -29 -18h-57q-23 0 -15 25zM313 475h711l-350 825h-4zM461 1761q0 92 62.5 155.5t154.5 63.5q90 0 154.5 -63.5t64.5 -155.5t-63.5 -154.5 t-155.5 -62.5t-154.5 62.5t-62.5 154.5zM526 1761.5q0 -61.5 45 -106.5t106.5 -45t106.5 45t45 106.5t-45 106.5t-106.5 45t-106.5 -45t-45 -106.5z" />
<glyph unicode="&#xc6;" horiz-adv-x="1873" d="M-16 35l870 1364q20 35 51 35h805q27 0 27 -27v-33q0 -27 -27 -26h-756v-568h658q27 0 26 -26v-35q0 -27 -26 -27h-658v-606h756q27 0 27 -29v-30q0 -27 -27 -27h-819q-27 0 -27 27v368h-545l-237 -377q-12 -18 -33 -18h-57q-31 0 -8 35zM367 475h497v782z" />
<glyph unicode="&#xc7;" horiz-adv-x="1470" d="M115 715q0 307 217 523t524 216q289 0 498 -190q18 -18 2 -37l-33 -35q-16 -16 -35 2q-188 168 -432 168q-268 0 -453.5 -190.5t-185.5 -456.5t185.5 -454.5t453.5 -188.5q225 0 432 172q18 14 33 4l35 -35q18 -16 0 -35q-205 -199 -500 -198q-4 0 -14.5 1t-16.5 1v-93 q98 -12 158.5 -62t60.5 -136q0 -82 -57 -140.5t-143 -58.5q-55 0 -99.5 21.5t-60.5 48.5q-14 23 2 37l21 16q14 12 32 -6q37 -43 105 -43q53 0 87 36t34 87q0 117 -189 139q-25 6 -24 27v133q-272 35 -454.5 240.5t-182.5 486.5z" />
<glyph unicode="&#xc8;" horiz-adv-x="1224" d="M217 27v1380q0 27 27 27h821q27 0 27 -27v-35q0 -27 -27 -26h-750v-566h650q27 0 26 -26v-35q0 -27 -26 -27h-650v-606h750q27 0 27 -27v-32q0 -27 -27 -27h-821q-27 0 -27 27zM463 1794l20 41q10 18 35 6l336 -184q18 -10 12 -29l-10 -20q-8 -16 -33 -6l-352 161 q-18 10 -8 31z" />
<glyph unicode="&#xc9;" horiz-adv-x="1224" d="M217 27v1380q0 27 27 27h821q27 0 27 -27v-35q0 -27 -27 -26h-750v-566h650q27 0 26 -26v-35q0 -27 -26 -27h-650v-606h750q27 0 27 -27v-32q0 -27 -27 -27h-821q-27 0 -27 27zM461 1628q-6 18 12 29l336 184q25 12 35 -6l20 -41q10 -20 -8 -31l-352 -161q-25 -10 -33 6z " />
<glyph unicode="&#xca;" horiz-adv-x="1224" d="M217 27v1380q0 27 27 27h821q27 0 27 -27v-35q0 -27 -27 -26h-750v-566h650q27 0 26 -26v-35q0 -27 -26 -27h-650v-606h750q27 0 27 -27v-32q0 -27 -27 -27h-821q-27 0 -27 27zM362 1599q-10 14 9 29l247 201q10 10 21 10h6q10 0 21 -10l247 -201q18 -14 9 -29l-19 -22 q-12 -16 -31 -4l-231 172l-229 -172q-18 -12 -31 4z" />
<glyph unicode="&#xcb;" horiz-adv-x="1224" d="M217 27v1380q0 27 27 27h821q27 0 27 -27v-35q0 -27 -27 -26h-750v-566h650q27 0 26 -26v-35q0 -27 -26 -27h-650v-606h750q27 0 27 -27v-32q0 -27 -27 -27h-821q-27 0 -27 27zM369 1708q0 31 20.5 51.5t48.5 20.5q31 0 51.5 -20.5t20.5 -51.5q0 -29 -20.5 -48.5 t-51.5 -19.5q-29 0 -49 19.5t-20 48.5zM797 1708q0 31 20.5 51.5t48.5 20.5q31 0 51.5 -20.5t20.5 -51.5q0 -29 -20.5 -48.5t-51.5 -19.5q-29 0 -49 19.5t-20 48.5z" />
<glyph unicode="&#xcc;" horiz-adv-x="532" d="M84 1794l20 41q10 18 35 6l336 -184q18 -10 12 -29l-10 -20q-8 -16 -33 -6l-352 161q-18 10 -8 31zM217 27v1380q0 27 27 27h45q27 0 26 -27v-1380q0 -27 -28 -27h-43q-27 0 -27 27z" />
<glyph unicode="&#xcd;" horiz-adv-x="532" d="M82 1628q-6 18 12 29l336 184q25 12 35 -6l20 -41q10 -20 -8 -31l-352 -161q-25 -10 -33 6zM217 27v1380q0 27 27 27h45q27 0 26 -27v-1380q0 -27 -28 -27h-43q-27 0 -27 27z" />
<glyph unicode="&#xce;" horiz-adv-x="532" d="M-16 1599q-10 14 8 29l248 201q10 10 20 10h6q10 0 21 -10l248 -201q18 -14 8 -29l-19 -22q-12 -16 -30 -4l-232 172l-229 -172q-18 -12 -31 4zM217 27v1380q0 27 27 27h45q27 0 26 -27v-1380q0 -27 -28 -27h-43q-27 0 -27 27z" />
<glyph unicode="&#xcf;" horiz-adv-x="532" d="M-18 1708q0 31 20.5 51.5t48.5 20.5q31 0 51.5 -20.5t20.5 -51.5q0 -29 -20.5 -48.5t-51.5 -19.5q-29 0 -49 19.5t-20 48.5zM217 27v1380q0 27 27 27h45q27 0 26 -27v-1380q0 -27 -28 -27h-43q-27 0 -27 27zM410 1708q0 31 20.5 51.5t48.5 20.5q31 0 51.5 -20.5 t20.5 -51.5q0 -29 -20.5 -48.5t-51.5 -19.5q-29 0 -49 19.5t-20 48.5z" />
<glyph unicode="&#xd0;" horiz-adv-x="1517" d="M127 707v10q0 27 25 26h71v664q0 27 25 27h434q297 0 509 -210t212 -505q0 -299 -211 -509t-510 -210h-434q-25 0 -25 27v653h-71q-25 0 -25 27zM319 88h347q268 0 450 181.5t182 449.5q0 266 -182 446.5t-450 180.5h-347v-603h512q27 0 27 -26v-12q0 -25 -27 -25h-512 v-592z" />
<glyph unicode="&#xd1;" horiz-adv-x="1579" d="M217 27v1400q0 27 31 27h35l983 -1280h2v1233q0 27 26 27h41q27 0 27 -27v-1401q0 -27 -33 -26h-26q-14 0 -992 1292h-2v-1245q0 -27 -26 -27h-39q-27 0 -27 27zM496 1675q49 125 116 160q35 16 74 16q49 0 84 -28.5t50.5 -64.5t40 -64.5t57.5 -28.5q76 0 116 121 q8 27 31 14l22 -8q16 -8 13 -27q-4 -16 -12.5 -35.5t-29 -56.5t-59 -60.5t-88 -23.5t-83 30t-50 64.5t-42 64.5t-56.5 30q-76 0 -117 -127q-6 -25 -31 -15l-24 11q-20 6 -12 28z" />
<glyph unicode="&#xd2;" horiz-adv-x="1705" d="M115 715q0 307 215 523t522 216q309 0 524 -216t215 -523q0 -309 -215 -522t-524 -213q-307 0 -522 214t-215 521zM205 714.5q0 -268.5 189.5 -456.5t457.5 -188t458.5 188t190.5 456.5t-190.5 459t-458.5 190.5t-457.5 -190.5t-189.5 -459zM672 1794l20 41q10 18 35 6 l336 -184q18 -10 12 -29l-10 -20q-8 -16 -33 -6l-352 161q-18 10 -8 31z" />
<glyph unicode="&#xd3;" horiz-adv-x="1705" d="M115 715q0 307 215 523t522 216q309 0 524 -216t215 -523q0 -309 -215 -522t-524 -213q-307 0 -522 214t-215 521zM205 714.5q0 -268.5 189.5 -456.5t457.5 -188t458.5 188t190.5 456.5t-190.5 459t-458.5 190.5t-457.5 -190.5t-189.5 -459zM670 1628q-6 18 12 29 l336 184q25 12 35 -6l20 -41q10 -20 -8 -31l-352 -161q-25 -10 -33 6z" />
<glyph unicode="&#xd4;" horiz-adv-x="1705" d="M115 715q0 307 215 523t522 216q309 0 524 -216t215 -523q0 -309 -215 -522t-524 -213q-307 0 -522 214t-215 521zM205 714.5q0 -268.5 189.5 -456.5t457.5 -188t458.5 188t190.5 456.5t-190.5 459t-458.5 190.5t-457.5 -190.5t-189.5 -459zM571 1599q-10 14 9 29 l247 201q10 10 21 10h6q10 0 20 -10l248 -201q18 -14 8 -29l-18 -22q-12 -16 -31 -4l-231 172l-229 -172q-18 -12 -31 4z" />
<glyph unicode="&#xd5;" horiz-adv-x="1705" d="M115 715q0 307 215 523t522 216q309 0 524 -216t215 -523q0 -309 -215 -522t-524 -213q-307 0 -522 214t-215 521zM205 714.5q0 -268.5 189.5 -456.5t457.5 -188t458.5 188t190.5 456.5t-190.5 459t-458.5 190.5t-457.5 -190.5t-189.5 -459zM547 1675q49 125 117 160 q35 16 73 16q49 0 84 -28.5t50.5 -64.5t40 -64.5t57.5 -28.5q76 0 116 121q8 27 31 14l23 -8q16 -8 12 -27q-4 -16 -12.5 -35.5t-28.5 -56.5t-59 -60.5t-88.5 -23.5t-83 30t-50 64.5t-42 64.5t-56.5 30q-76 0 -117 -127q-5 -25 -30 -15l-25 11q-20 6 -12 28z" />
<glyph unicode="&#xd6;" horiz-adv-x="1705" d="M115 715q0 307 215 523t522 216q309 0 524 -216t215 -523q0 -309 -215 -522t-524 -213q-307 0 -522 214t-215 521zM205 714.5q0 -268.5 189.5 -456.5t457.5 -188t458.5 188t190.5 456.5t-190.5 459t-458.5 190.5t-457.5 -190.5t-189.5 -459zM569 1708q0 31 20.5 51.5 t49.5 20.5q31 0 51.5 -20.5t20.5 -51.5q0 -29 -20.5 -48.5t-51.5 -19.5q-29 0 -49.5 19.5t-20.5 48.5zM997 1708q0 31 20.5 51.5t49.5 20.5q31 0 51.5 -20.5t20.5 -51.5q0 -29 -20.5 -48.5t-51.5 -19.5q-29 0 -49.5 19.5t-20.5 48.5z" />
<glyph unicode="&#xd7;" d="M186 426q-18 18 0 37l248 248l-248 247q-16 20 0 39l23 23q20 20 39 0l248 -248l247 250q18 16 37 -2l25 -23q16 -20 0 -36l-248 -250l248 -248q20 -20 0 -37l-25 -23q-18 -23 -35 -2l-249 250l-250 -248q-6 -8 -17.5 -8t-17.5 8z" />
<glyph unicode="&#xd8;" horiz-adv-x="1705" d="M117 715q0 307 215 523t522 216q295 0 506 -201l135 131q16 18 35 0l8 -8q18 -18 0 -37l-133 -131q188 -215 188 -493q0 -307 -216 -521t-523 -214q-301 0 -508 196l-131 -127q-16 -18 -35 0l-8 8q-18 18 0 37l129 127q-184 211 -184 494zM207 715q0 -248 160 -428 l929 903q-186 174 -442 174q-268 0 -457.5 -190.5t-189.5 -458.5zM412 242q182 -172 442 -172q268 0 458.5 188t190.5 457q0 246 -164 430z" />
<glyph unicode="&#xd9;" horiz-adv-x="1474" d="M201 522v885q0 27 26 27h43q27 0 27 -27v-875q0 -203 119 -330.5t319 -127.5q203 0 323 128t120 328v877q0 27 28 27h41q27 0 27 -27v-885q0 -238 -148.5 -390t-390.5 -152q-240 0 -387 152t-147 390zM573 1794l21 41q10 18 35 6l336 -184q18 -10 12 -29l-10 -20 q-8 -16 -33 -6l-352 161q-18 10 -9 31z" />
<glyph unicode="&#xda;" horiz-adv-x="1474" d="M201 522v885q0 27 26 27h43q27 0 27 -27v-875q0 -203 119 -330.5t319 -127.5q203 0 323 128t120 328v877q0 27 28 27h41q27 0 27 -27v-885q0 -238 -148.5 -390t-390.5 -152q-240 0 -387 152t-147 390zM571 1628q-6 18 13 29l336 184q25 12 34 -6l21 -41q10 -20 -8 -31 l-353 -161q-25 -10 -32 6z" />
<glyph unicode="&#xdb;" horiz-adv-x="1474" d="M201 522v885q0 27 26 27h43q27 0 27 -27v-875q0 -203 119 -330.5t319 -127.5q203 0 323 128t120 328v877q0 27 28 27h41q27 0 27 -27v-885q0 -238 -148.5 -390t-390.5 -152q-240 0 -387 152t-147 390zM473 1599q-10 14 8 29l248 201q10 10 21 10h6q10 0 20 -10l248 -201 q18 -14 8 -29l-18 -22q-12 -16 -31 -4l-231 172l-230 -172q-18 -12 -30 4z" />
<glyph unicode="&#xdc;" horiz-adv-x="1474" d="M201 522v885q0 27 26 27h43q27 0 27 -27v-875q0 -203 119 -330.5t319 -127.5q203 0 323 128t120 328v877q0 27 28 27h41q27 0 27 -27v-885q0 -238 -148.5 -390t-390.5 -152q-240 0 -387 152t-147 390zM471 1708q0 31 20.5 51.5t49.5 20.5q31 0 51 -20.5t20 -51.5 q0 -29 -20 -48.5t-51 -19.5q-29 0 -49.5 19.5t-20.5 48.5zM899 1708q0 31 20.5 51.5t49.5 20.5q31 0 51 -20.5t20 -51.5q0 -29 -20 -48.5t-51 -19.5q-29 0 -49.5 19.5t-20.5 48.5z" />
<glyph unicode="&#xdd;" horiz-adv-x="1146" d="M-8 1424.5q4 9.5 20 9.5h62q16 0 26 -13l467 -637l475 637q10 12 27 13h61q16 0 20.5 -9.5t-3.5 -21.5l-533 -705v-671q0 -27 -26 -27h-10q-60 -2 -60 27v669l-522 707q-8 12 -4 21.5zM365 1628q-6 18 12 29l336 184q25 12 35 -6l20 -41q10 -20 -8 -31l-352 -161 q-25 -10 -33 6z" />
<glyph unicode="&#xde;" horiz-adv-x="1220" d="M217 27v1380q0 27 27 27h43q27 0 26 -27v-227h371q190 0 326.5 -134.5t136.5 -322.5q0 -193 -135 -329t-326 -136h-373v-231q0 -27 -32 -27h-37q-27 0 -27 27zM313 350h367q152 0 261.5 109.5t109.5 265.5q0 150 -110 254t-263 104h-365v-733z" />
<glyph unicode="&#xdf;" horiz-adv-x="1134" d="M156 27v813q0 303 111.5 458.5t324.5 155.5q147 0 248.5 -79t101.5 -236q0 -82 -45 -168t-90 -150.5t-45 -99.5q0 -25 46 -69t101.5 -89t101.5 -121.5t46 -162.5q0 -147 -99.5 -223t-242.5 -76q-74 0 -128.5 13t-74.5 28.5t-16 27.5l12 39q8 27 31 16q82 -45 176 -45 q106 0 178 57.5t72 162.5q0 70 -47.5 137t-103.5 111t-103 96.5t-47 93.5q0 51 93 194.5t93 223.5q0 115 -77 176t-183 61q-344 0 -344 -532v-813q0 -27 -27 -27h-41q-22 0 -22 27z" />
<glyph unicode="&#xe0;" horiz-adv-x="874" d="M90 252q0 121 93 198.5t251 77.5q106 0 207 -36q0 150 -34 210t-146 60q-39 0 -76 -5t-64.5 -13.5t-49 -15.5t-38 -14t-18.5 -7q-23 -8 -31 16l-10 25q-8 23 12 30q10 6 37 18.5t97.5 28t146.5 15.5q74 0 123 -18.5t76.5 -46t41 -80t16.5 -95.5t3 -119v-454 q0 -27 -27 -27h-24q-18 0 -25 23l-8 73q-127 -117 -285 -116q-117 0 -192.5 74.5t-75.5 197.5zM174 254q0 -88 54.5 -141.5t140.5 -53.5t161.5 41t110.5 86v226q-92 43 -207 43q-117 0 -188.5 -55.5t-71.5 -145.5zM279 1337l20 41q10 18 35 6l336 -184q18 -10 12 -29 l-10 -20q-8 -16 -33 -6l-352 162q-18 10 -8 30z" />
<glyph unicode="&#xe1;" horiz-adv-x="874" d="M90 252q0 121 93 198.5t251 77.5q106 0 207 -36q0 150 -34 210t-146 60q-39 0 -76 -5t-64.5 -13.5t-49 -15.5t-38 -14t-18.5 -7q-23 -8 -31 16l-10 25q-8 23 12 30q10 6 37 18.5t97.5 28t146.5 15.5q74 0 123 -18.5t76.5 -46t41 -80t16.5 -95.5t3 -119v-454 q0 -27 -27 -27h-24q-18 0 -25 23l-8 73q-127 -117 -285 -116q-117 0 -192.5 74.5t-75.5 197.5zM174 254q0 -88 54.5 -141.5t140.5 -53.5t161.5 41t110.5 86v226q-92 43 -207 43q-117 0 -188.5 -55.5t-71.5 -145.5zM272 1178q-8 16 13 28l338 178q23 14 34 -6l21 -41 q10 -23 -19 -37l-346 -157q-20 -8 -28 8z" />
<glyph unicode="&#xe2;" horiz-adv-x="874" d="M90 252q0 121 93 198.5t251 77.5q106 0 207 -36q0 150 -34 210t-146 60q-39 0 -76 -5t-64.5 -13.5t-49 -15.5t-38 -14t-18.5 -7q-23 -8 -31 16l-10 25q-8 23 12 30q10 6 37 18.5t97.5 28t146.5 15.5q74 0 123 -18.5t76.5 -46t41 -80t16.5 -95.5t3 -119v-454 q0 -27 -27 -27h-24q-18 0 -25 23l-8 73q-127 -117 -285 -116q-117 0 -192.5 74.5t-75.5 197.5zM158 1153q-10 14 8 29l248 200q10 10 20 11h6q10 0 21 -11l248 -200q18 -14 8 -29l-19 -23q-12 -16 -30 -4l-232 172l-229 -172q-18 -12 -31 4zM174 254q0 -88 54.5 -141.5 t140.5 -53.5t161.5 41t110.5 86v226q-92 43 -207 43q-117 0 -188.5 -55.5t-71.5 -145.5z" />
<glyph unicode="&#xe3;" horiz-adv-x="874" d="M90 252q0 121 93 198.5t251 77.5q106 0 207 -36q0 150 -34 210t-146 60q-39 0 -76 -5t-64.5 -13.5t-49 -15.5t-38 -14t-18.5 -7q-23 -8 -31 16l-10 25q-8 23 12 30q10 6 37 18.5t97.5 28t146.5 15.5q74 0 123 -18.5t76.5 -46t41 -80t16.5 -95.5t3 -119v-454 q0 -27 -27 -27h-24q-18 0 -25 23l-8 73q-127 -117 -285 -116q-117 0 -192.5 74.5t-75.5 197.5zM123 1225q49 125 117 159q35 16 73 17q49 0 84 -29t50.5 -64.5t40 -64.5t57.5 -29q76 0 117 121q8 27 30 15l23 -9q16 -8 12 -26q-4 -16 -12 -35.5t-28.5 -56.5t-59.5 -60.5 t-88.5 -23.5t-83 29.5t-50 64.5t-42 64.5t-56.5 29.5q-76 0 -117 -127q-5 -24 -30 -14l-25 10q-20 6 -12 29zM174 254q0 -88 54.5 -141.5t140.5 -53.5t161.5 41t110.5 86v226q-92 43 -207 43q-117 0 -188.5 -55.5t-71.5 -145.5z" />
<glyph unicode="&#xe4;" horiz-adv-x="874" d="M90 252q0 121 93 198.5t251 77.5q106 0 207 -36q0 150 -34 210t-146 60q-39 0 -76 -5t-64.5 -13.5t-49 -15.5t-38 -14t-18.5 -7q-23 -8 -31 16l-10 25q-8 23 12 30q10 6 37 18.5t97.5 28t146.5 15.5q74 0 123 -18.5t76.5 -46t41 -80t16.5 -95.5t3 -119v-454 q0 -27 -27 -27h-24q-18 0 -25 23l-8 73q-127 -117 -285 -116q-117 0 -192.5 74.5t-75.5 197.5zM174 254q0 -88 54.5 -141.5t140.5 -53.5t161.5 41t110.5 86v226q-92 43 -207 43q-117 0 -188.5 -55.5t-71.5 -145.5zM199 1288q0 31 20.5 51.5t48.5 20.5q31 0 50.5 -20.5 t19.5 -51.5q0 -29 -19.5 -48t-50.5 -19q-29 0 -49 19.5t-20 47.5zM592 1288q0 31 19.5 51.5t47.5 20.5q31 0 51.5 -20.5t20.5 -51.5q0 -29 -20.5 -48t-51.5 -19q-29 0 -48 19.5t-19 47.5z" />
<glyph unicode="&#xe5;" horiz-adv-x="874" d="M90 252q0 121 93 198.5t251 77.5q106 0 207 -36q0 150 -34 210t-146 60q-39 0 -76 -5t-64.5 -13.5t-49 -15.5t-38 -14t-18.5 -7q-23 -8 -31 16l-10 25q-8 23 12 30q10 6 37 18.5t97.5 28t146.5 15.5q74 0 123 -18.5t76.5 -46t41 -80t16.5 -95.5t3 -119v-454 q0 -27 -27 -27h-24q-18 0 -25 23l-8 73q-127 -117 -285 -116q-117 0 -192.5 74.5t-75.5 197.5zM174 254q0 -88 54.5 -141.5t140.5 -53.5t161.5 41t110.5 86v226q-92 43 -207 43q-117 0 -188.5 -55.5t-71.5 -145.5zM221 1235q0 92 63.5 155.5t155.5 63.5q90 0 153.5 -63.5 t63.5 -155.5t-63.5 -154.5t-153.5 -62.5q-92 0 -155.5 62.5t-63.5 154.5zM287 1235q0 -61 46 -106.5t107 -45.5q59 0 104.5 45.5t45.5 106.5t-45 106t-105 45q-61 0 -107 -45t-46 -106z" />
<glyph unicode="&#xe6;" horiz-adv-x="1443" d="M92 256q0 121 90 195.5t242 74.5q143 0 217 -26q0 150 -31.5 205t-142.5 55q-39 0 -78 -5t-68.5 -13.5t-51 -15.5t-39 -14t-19.5 -7q-25 -6 -31 16l-8 33q-4 18 18 26q117 59 281 60q188 0 236 -121q111 121 280 121q162 0 266.5 -105.5t104.5 -269.5q0 -80 -31 -80h-606 v-172q43 -70 114.5 -111t157.5 -41q129 0 242 76q25 16 37 0l20 -28q10 -14 -8 -33q-35 -35 -122 -65.5t-175 -30.5q-186 0 -299 139q-47 -55 -135 -97t-184 -42q-121 0 -199 75.5t-78 200.5zM174 254q0 -92 59.5 -143.5t147.5 -51.5q82 0 155.5 37t106.5 80v246 q-106 31 -209 31q-115 0 -187.5 -54.5t-72.5 -144.5zM721 459h547q0 127 -74 213t-207 86q-178 0 -266 -144v-155z" />
<glyph unicode="&#xe7;" horiz-adv-x="944" d="M96 410q0 182 127 306t303 124q106 0 186.5 -41t116.5 -88q16 -20 -4 -37l-20 -21q-18 -18 -43 4q-27 31 -89.5 63t-146.5 32q-141 0 -239.5 -97.5t-98.5 -242.5q0 -147 98.5 -246.5t237.5 -99.5q145 0 256 120q20 23 39 4l23 -20q16 -16 6 -33q-33 -51 -121 -104 t-201 -53h-14v-91q98 -12 158.5 -62t60.5 -136q0 -82 -57.5 -140.5t-143.5 -58.5q-55 0 -99 21.5t-60 48.5q-14 23 2 37l20 16q14 12 33 -6q37 -43 104 -43q53 0 87 36t34 87q0 117 -188 139q-25 6 -25 27v135q-147 31 -244.5 145.5t-97.5 274.5z" />
<glyph unicode="&#xe8;" horiz-adv-x="956" d="M96 412q0 180 110.5 304t293.5 124q162 0 266 -105.5t104 -269.5q0 -80 -30 -80h-654q6 -135 95.5 -229.5t224.5 -94.5q129 0 242 76q25 16 36 0l21 -28q10 -14 -8 -33q-35 -35 -122 -65.5t-175 -30.5q-182 0 -293 124t-111 308zM188 459h592q0 127 -73.5 213t-206.5 86 t-218.5 -85t-93.5 -214zM297 1337l20 41q10 18 35 6l336 -184q18 -10 12 -29l-10 -20q-8 -16 -33 -6l-352 162q-18 10 -8 30z" />
<glyph unicode="&#xe9;" horiz-adv-x="956" d="M96 412q0 180 110.5 304t293.5 124q162 0 266 -105.5t104 -269.5q0 -80 -30 -80h-654q6 -135 95.5 -229.5t224.5 -94.5q129 0 242 76q25 16 36 0l21 -28q10 -14 -8 -33q-35 -35 -122 -65.5t-175 -30.5q-182 0 -293 124t-111 308zM188 459h592q0 127 -73.5 213t-206.5 86 t-218.5 -85t-93.5 -214zM297 1178q-8 16 12 28l338 178q23 14 35 -6l20 -41q10 -23 -18 -37l-346 -157q-20 -8 -29 8z" />
<glyph unicode="&#xea;" horiz-adv-x="956" d="M96 412q0 180 110.5 304t293.5 124q162 0 266 -105.5t104 -269.5q0 -80 -30 -80h-654q6 -135 95.5 -229.5t224.5 -94.5q129 0 242 76q25 16 36 0l21 -28q10 -14 -8 -33q-35 -35 -122 -65.5t-175 -30.5q-182 0 -293 124t-111 308zM188 459h592q0 127 -73.5 213t-206.5 86 t-218.5 -85t-93.5 -214zM217 1153q-10 14 8 29l248 200q10 10 21 11h6q10 0 20 -11l248 -200q18 -14 8 -29l-18 -23q-12 -16 -31 -4l-231 172l-230 -172q-18 -12 -30 4z" />
<glyph unicode="&#xeb;" horiz-adv-x="956" d="M96 412q0 180 110.5 304t293.5 124q162 0 266 -105.5t104 -269.5q0 -80 -30 -80h-654q6 -135 95.5 -229.5t224.5 -94.5q129 0 242 76q25 16 36 0l21 -28q10 -14 -8 -33q-35 -35 -122 -65.5t-175 -30.5q-182 0 -293 124t-111 308zM188 459h592q0 127 -73.5 213t-206.5 86 t-218.5 -85t-93.5 -214zM231 1288q0 31 20.5 51.5t49.5 20.5q31 0 50.5 -20.5t19.5 -51.5q0 -29 -19.5 -48t-50.5 -19q-29 0 -49.5 19.5t-20.5 47.5zM625 1288q0 31 19.5 51.5t47.5 20.5q31 0 51.5 -20.5t20.5 -51.5q0 -29 -20.5 -48t-51.5 -19q-29 0 -48 19.5t-19 47.5z " />
<glyph unicode="&#xec;" horiz-adv-x="401" d="M0 1337l20 41q10 18 35 6l336 -184q18 -10 12 -29l-10 -20q-8 -16 -33 -6l-352 162q-18 10 -8 30zM156 27v766q0 27 26 26h37q27 0 27 -26v-766q0 -27 -29 -27h-35q-26 0 -26 27z" />
<glyph unicode="&#xed;" horiz-adv-x="401" d="M0 1178q-8 16 12 28l338 178q23 14 35 -6l21 -41q10 -23 -19 -37l-346 -157q-20 -8 -29 8zM156 27v766q0 27 26 26h37q27 0 27 -26v-766q0 -27 -29 -27h-35q-26 0 -26 27z" />
<glyph unicode="&#xee;" horiz-adv-x="401" d="M-80 1153q-10 14 8 29l248 200q10 10 21 11h6q10 0 20 -11l248 -200q18 -14 8 -29l-18 -23q-12 -16 -31 -4l-231 172l-230 -172q-18 -12 -30 4zM156 27v766q0 27 26 26h37q27 0 27 -26v-766q0 -27 -29 -27h-35q-26 0 -26 27z" />
<glyph unicode="&#xef;" horiz-adv-x="401" d="M-66 1288q0 31 20.5 51.5t49.5 20.5q31 0 50.5 -20.5t19.5 -51.5q0 -29 -19.5 -48t-50.5 -19q-29 0 -49.5 19.5t-20.5 47.5zM156 27v766q0 27 26 26h37q27 0 27 -26v-766q0 -27 -29 -27h-35q-26 0 -26 27zM328 1288q0 31 19.5 51.5t47.5 20.5q31 0 51.5 -20.5t20.5 -51.5 q0 -29 -20.5 -48t-51.5 -19q-29 0 -48 19.5t-19 47.5z" />
<glyph unicode="&#xf0;" horiz-adv-x="1132" d="M90 451q0 199 131 323.5t314 124.5q135 0 238.5 -57.5t141.5 -108.5q-43 252 -290 455l-236 -137q-25 -12 -35 10l-6 10q-16 23 8 35l213 123q-133 90 -245 135q-25 8 -13 33l15 35q6 18 28 10q152 -55 297 -166l142 82q23 12 36 -10l7 -11q10 -20 -11 -34l-118 -70 q319 -276 319 -670q0 -256 -125 -419.5t-354 -163.5q-186 0 -321.5 138t-135.5 333zM180 446q0 -158 107.5 -269t259.5 -111q186 0 287.5 141t101.5 342q0 20 -4 61q-12 14 -20.5 25.5t-48.5 49.5t-80 62.5t-106.5 46t-135.5 21.5q-150 0 -255.5 -104.5t-105.5 -264.5z" />
<glyph unicode="&#xf1;" horiz-adv-x="1013" d="M156 27v766q0 27 28 26h21q20 0 24 -20l9 -88q20 23 53 47t104.5 53t145.5 29q168 0 248.5 -98.5t80.5 -276.5v-438q0 -27 -26 -27h-37q-27 0 -27 27v438q0 141 -63.5 214t-179.5 73q-76 0 -149 -36t-101.5 -62.5t-42.5 -43.5v-583q0 -27 -27 -27h-39q-22 0 -22 27z M201 1225q49 125 116 159q35 16 74 17q49 0 84 -29t50.5 -64.5t40 -64.5t57.5 -29q76 0 116 121q8 27 31 15l23 -9q16 -8 12 -26q-4 -16 -12.5 -35.5t-29 -56.5t-59 -60.5t-88 -23.5t-83 29.5t-50 64.5t-42 64.5t-56.5 29.5q-76 0 -117 -127q-5 -24 -30 -14l-25 10 q-20 6 -12 29z" />
<glyph unicode="&#xf2;" horiz-adv-x="1011" d="M94 412q0 176 120 302t292 126t292 -126t120 -302q0 -180 -120 -306t-292 -126t-292 126t-120 306zM182 412q0 -145 93.5 -247t230.5 -102q135 0 228 101.5t93 247.5q0 141 -93 241.5t-228 100.5t-229.5 -100.5t-94.5 -241.5zM303 1337l21 41q10 18 34 6l336 -184 q18 -10 13 -29l-11 -20q-7 -16 -32 -6l-353 162q-18 10 -8 30z" />
<glyph unicode="&#xf3;" horiz-adv-x="1011" d="M94 412q0 176 120 302t292 126t292 -126t120 -302q0 -180 -120 -306t-292 -126t-292 126t-120 306zM182 412q0 -145 93.5 -247t230.5 -102q135 0 228 101.5t93 247.5q0 141 -93 241.5t-228 100.5t-229.5 -100.5t-94.5 -241.5zM303 1178q-8 16 12 28l338 178q23 14 35 -6 l21 -41q10 -23 -19 -37l-346 -157q-20 -8 -29 8z" />
<glyph unicode="&#xf4;" horiz-adv-x="1011" d="M94 412q0 176 120 302t292 126t292 -126t120 -302q0 -180 -120 -306t-292 -126t-292 126t-120 306zM182 412q0 -145 93.5 -247t230.5 -102q135 0 228 101.5t93 247.5q0 141 -93 241.5t-228 100.5t-229.5 -100.5t-94.5 -241.5zM223 1153q-10 14 8 29l248 200q10 10 21 11 h6q10 0 20 -11l248 -200q18 -14 8 -29l-18 -23q-12 -16 -31 -4l-231 172l-230 -172q-18 -12 -30 4z" />
<glyph unicode="&#xf5;" horiz-adv-x="1011" d="M94 412q0 176 120 302t292 126t292 -126t120 -302q0 -180 -120 -306t-292 -126t-292 126t-120 306zM182 412q0 -145 93.5 -247t230.5 -102q135 0 228 101.5t93 247.5q0 141 -93 241.5t-228 100.5t-229.5 -100.5t-94.5 -241.5zM203 1225q49 125 116 159q35 16 74 17 q49 0 84 -29t50.5 -64.5t40 -64.5t57.5 -29q76 0 116 121q8 27 31 15l23 -9q16 -8 12 -26q-4 -16 -12.5 -35.5t-29 -56.5t-59 -60.5t-88 -23.5t-83 29.5t-50 64.5t-42 64.5t-56.5 29.5q-76 0 -117 -127q-5 -24 -30 -14l-25 10q-20 6 -12 29z" />
<glyph unicode="&#xf6;" horiz-adv-x="1011" d="M94 412q0 176 120 302t292 126t292 -126t120 -302q0 -180 -120 -306t-292 -126t-292 126t-120 306zM182 412q0 -145 93.5 -247t230.5 -102q135 0 228 101.5t93 247.5q0 141 -93 241.5t-228 100.5t-229.5 -100.5t-94.5 -241.5zM238 1288q0 31 20.5 51.5t48.5 20.5 q31 0 50.5 -20.5t19.5 -51.5q0 -29 -19.5 -48t-50.5 -19q-29 0 -49 19.5t-20 47.5zM631 1288q0 31 19.5 51.5t47.5 20.5q31 0 51.5 -20.5t20.5 -51.5q0 -29 -20.5 -48t-51.5 -19q-29 0 -48 19.5t-19 47.5z" />
<glyph unicode="&#xf7;" horiz-adv-x="1198" d="M178 696v31q0 27 27 27h788q25 0 25 -27v-31q0 -27 -25 -26h-788q-27 0 -27 26zM508 389q0 33 24.5 57.5t59.5 24.5t58.5 -23.5t23.5 -58.5t-23.5 -59.5t-58.5 -24.5t-59.5 25.5t-24.5 58.5zM508 1032q0 33 24.5 57.5t59.5 24.5t58.5 -23.5t23.5 -58.5t-23.5 -59.5 t-58.5 -24.5t-59.5 25.5t-24.5 58.5z" />
<glyph unicode="&#xf8;" horiz-adv-x="1009" d="M94 410q0 176 120 303t292 127q164 0 282 -119l48 45q18 18 36 0l9 -8q23 -18 0 -37l-50 -49q84 -117 84 -262q0 -180 -118.5 -305t-290.5 -125q-168 0 -287 118l-35 -35q-16 -18 -37 3l-6 8q-20 18 -2 37l37 36q-82 119 -82 263zM184 410q1 -113 58 -201l483 450 q-90 94 -219 95q-135 0 -228.5 -100.5t-93.5 -243.5zM283 160q92 -96 223 -97q135 0 228 100.5t93 246.5q0 111 -61 200z" />
<glyph unicode="&#xf9;" d="M145 352v441q0 27 27 26h37q27 0 27 -26v-441q0 -141 62 -213.5t181 -72.5q76 0 143.5 36.5t92 63.5t35.5 43v584q0 27 26 26h37q27 0 27 -26v-766q0 -27 -27 -27h-25q-20 0 -24 25l-8 79q-16 -23 -46 -47t-96.5 -50.5t-140.5 -26.5q-328 -1 -328 372zM307 1337l21 41 q10 18 34 6l336 -184q18 -10 13 -29l-11 -20q-7 -16 -32 -6l-353 162q-18 10 -8 30z" />
<glyph unicode="&#xfa;" d="M145 352v441q0 27 27 26h37q27 0 27 -26v-441q0 -141 62 -213.5t181 -72.5q76 0 143.5 36.5t92 63.5t35.5 43v584q0 27 26 26h37q27 0 27 -26v-766q0 -27 -27 -27h-25q-20 0 -24 25l-8 79q-16 -23 -46 -47t-96.5 -50.5t-140.5 -26.5q-328 -1 -328 372zM307 1178 q-8 16 12 28l338 178q23 14 35 -6l21 -41q10 -23 -19 -37l-346 -157q-20 -8 -29 8z" />
<glyph unicode="&#xfb;" d="M145 352v441q0 27 27 26h37q27 0 27 -26v-441q0 -141 62 -213.5t181 -72.5q76 0 143.5 36.5t92 63.5t35.5 43v584q0 27 26 26h37q27 0 27 -26v-766q0 -27 -27 -27h-25q-20 0 -24 25l-8 79q-16 -23 -46 -47t-96.5 -50.5t-140.5 -26.5q-328 -1 -328 372zM217 1153 q-10 14 8 29l248 200q10 10 21 11h6q10 0 20 -11l248 -200q18 -14 8 -29l-18 -23q-12 -16 -31 -4l-231 172l-230 -172q-18 -12 -30 4z" />
<glyph unicode="&#xfc;" d="M145 352v441q0 27 27 26h37q27 0 27 -26v-441q0 -141 62 -213.5t181 -72.5q76 0 143.5 36.5t92 63.5t35.5 43v584q0 27 26 26h37q27 0 27 -26v-766q0 -27 -27 -27h-25q-20 0 -24 25l-8 79q-16 -23 -46 -47t-96.5 -50.5t-140.5 -26.5q-328 -1 -328 372zM240 1288 q0 31 20.5 51.5t48.5 20.5q31 0 50.5 -20.5t19.5 -51.5q0 -29 -19.5 -48t-50.5 -19q-29 0 -49 19.5t-20 47.5zM633 1288q0 31 19.5 51.5t47.5 20.5q31 0 51.5 -20.5t20.5 -51.5q0 -29 -20.5 -48t-51.5 -19q-29 0 -48 19.5t-19 47.5z" />
<glyph unicode="&#xfd;" horiz-adv-x="907" d="M31 786q-16 33 12 33h45q18 0 27 -18l350 -692h4l319 692q10 18 27 18h45q29 0 12 -33l-643 -1384q-6 -16 -26 -16h-47q-27 0 -15 28l277 594zM264 1178q-8 16 12 28l338 178q23 14 35 -6l21 -41q10 -23 -19 -37l-346 -157q-20 -8 -29 8z" />
<glyph unicode="&#xfe;" d="M156 -588v1995q0 27 28 27h33q27 0 27 -27v-664q115 96 262 97q168 0 280.5 -126t112.5 -306q0 -184 -115.5 -306t-296.5 -122q-149 0 -243 86v-654q0 -27 -27 -26h-35q-27 0 -26 26zM246 164q4 -8 29.5 -29.5t83 -45t118.5 -23.5q147 0 240.5 97t93.5 245 q0 145 -87 246.5t-224 101.5q-72 0 -134.5 -29t-87 -52.5t-32.5 -35.5v-475z" />
<glyph unicode="&#xff;" horiz-adv-x="907" d="M31 786q-16 33 12 33h45q18 0 27 -18l350 -692h4l319 692q10 18 27 18h45q29 0 12 -33l-643 -1384q-6 -16 -26 -16h-47q-27 0 -15 28l277 594zM201 1288q0 31 20.5 51.5t48.5 20.5q31 0 50.5 -20.5t19.5 -51.5q0 -29 -19.5 -48t-50.5 -19q-29 0 -49 19.5t-20 47.5z M594 1288q0 31 19.5 51.5t48.5 20.5q31 0 51 -20.5t20 -51.5q0 -29 -20 -48t-51 -19q-29 0 -48.5 19.5t-19.5 47.5z" />
<glyph unicode="&#x152;" horiz-adv-x="1998" d="M115 715q0 307 214 523t521 216q78 0 174 -20h817q25 0 25 -27v-35q0 -27 -25 -26h-749v-566h649q27 0 26 -26v-35q0 -27 -26 -27h-649v-606h749q25 0 25 -27v-32q0 -27 -25 -27h-815q-96 -20 -176 -20q-309 0 -522 213t-213 522zM203 714.5q0 -268.5 189.5 -456.5 t457.5 -188q78 0 143 14v1262q-76 16 -143 16q-268 0 -457.5 -189.5t-189.5 -458z" />
<glyph unicode="&#x153;" horiz-adv-x="1613" d="M94 412q0 176 119 302t291 126q100 0 188 -43t146 -121q109 164 317 164q160 0 266.5 -107.5t106.5 -273.5q0 -80 -31 -80h-620v-135q33 -72 113.5 -127.5t170.5 -55.5q129 0 242 76q25 16 37 0l20 -28q10 -14 -8 -33q-35 -35 -122 -65.5t-175 -30.5q-199 0 -326 170 q-123 -170 -325 -170q-172 0 -291 126t-119 306zM182 412q0 -145 93.5 -247t228.5 -102q94 0 177 57.5t112 123.5v348q-39 61 -118 111.5t-171 50.5q-135 0 -228.5 -100.5t-93.5 -241.5zM877 453h561q0 127 -75 215t-208 88q-88 0 -167 -45t-111 -121v-137z" />
<glyph unicode="&#x178;" horiz-adv-x="1146" d="M-8 1424.5q4 9.5 20 9.5h62q16 0 26 -13l467 -637l475 637q10 12 27 13h61q16 0 20.5 -9.5t-3.5 -21.5l-533 -705v-671q0 -27 -26 -27h-10q-60 -2 -60 27v669l-522 707q-8 12 -4 21.5zM285 1708q0 31 20.5 51.5t48.5 20.5q31 0 51.5 -20.5t20.5 -51.5q0 -29 -20.5 -48.5 t-51.5 -19.5q-29 0 -49 19.5t-20 48.5zM713 1708q0 31 20.5 51.5t48.5 20.5q31 0 51.5 -20.5t20.5 -51.5q0 -29 -20.5 -48.5t-51.5 -19.5q-29 0 -49 19.5t-20 48.5z" />
<glyph unicode="&#x2c6;" horiz-adv-x="763" d="M98 1153q-10 14 8 29l248 200q10 10 21 11h6q10 0 20 -11l248 -200q18 -14 8 -29l-18 -23q-12 -16 -31 -4l-231 172l-230 -172q-18 -12 -30 4z" />
<glyph unicode="&#x2dc;" horiz-adv-x="778" d="M72 1225q49 125 116 159q35 16 74 17q49 0 84 -29t50.5 -64.5t40 -64.5t57.5 -29q76 0 116 121q8 27 31 15l23 -9q16 -8 12 -26q-4 -16 -12.5 -35.5t-29 -56.5t-59 -60.5t-88 -23.5t-83 29.5t-50 64.5t-42 64.5t-56.5 29.5q-76 0 -117 -127q-5 -24 -30 -14l-25 10 q-20 6 -12 29z" />
<glyph unicode="&#x2000;" horiz-adv-x="990" />
<glyph unicode="&#x2001;" horiz-adv-x="1980" />
<glyph unicode="&#x2002;" horiz-adv-x="990" />
<glyph unicode="&#x2003;" horiz-adv-x="1980" />
<glyph unicode="&#x2004;" horiz-adv-x="660" />
<glyph unicode="&#x2005;" horiz-adv-x="495" />
<glyph unicode="&#x2006;" horiz-adv-x="330" />
<glyph unicode="&#x2007;" horiz-adv-x="330" />
<glyph unicode="&#x2008;" horiz-adv-x="247" />
<glyph unicode="&#x2009;" horiz-adv-x="396" />
<glyph unicode="&#x200a;" horiz-adv-x="110" />
<glyph unicode="&#x2010;" horiz-adv-x="978" d="M233 500v22q0 27 25 27h463q27 0 27 -27v-22q0 -27 -27 -27h-463q-25 0 -25 27z" />
<glyph unicode="&#x2011;" horiz-adv-x="978" d="M233 500v22q0 27 25 27h463q27 0 27 -27v-22q0 -27 -27 -27h-463q-25 0 -25 27z" />
<glyph unicode="&#x2012;" horiz-adv-x="978" d="M233 500v22q0 27 25 27h463q27 0 27 -27v-22q0 -27 -27 -27h-463q-25 0 -25 27z" />
<glyph unicode="&#x2013;" horiz-adv-x="1318" d="M240 502v16q0 27 26 27h787q27 0 26 -27v-16q0 -25 -26 -25h-787q-27 0 -26 25z" />
<glyph unicode="&#x2014;" horiz-adv-x="1765" d="M240 502v16q0 27 26 27h1233q27 0 27 -27v-16q0 -25 -27 -25h-1233q-27 0 -26 25z" />
<glyph unicode="&#x2018;" horiz-adv-x="387" d="M88 1159q0 106 50 182t98 103q25 14 34 0l17 -21q14 -16 -8 -32q-104 -84 -115 -195q-2 -45 10 -78q16 10 33 10q39 0 60.5 -23.5t21.5 -57.5q0 -37 -23.5 -58.5t-62.5 -21.5q-49 0 -82 48t-33 144z" />
<glyph unicode="&#x2019;" horiz-adv-x="387" d="M104 1374q0 37 24 58.5t62 21.5q49 0 82 -48t33 -144q0 -106 -50 -182t-97 -103q-25 -14 -35 0l-17 20q-14 16 9 33q104 84 114 195q2 45 -10 78q-16 -10 -33 -11q-39 0 -60.5 23.5t-21.5 58.5z" />
<glyph unicode="&#x201a;" horiz-adv-x="468" d="M143 59q0 37 23.5 58.5t62.5 21.5q49 0 82 -48t33 -144q0 -106 -50 -182t-97 -103q-25 -14 -35 0l-17 21q-14 16 9 32q104 84 114 195q2 45 -10 78q-16 -10 -33 -11q-39 0 -60.5 23.5t-21.5 58.5z" />
<glyph unicode="&#x201c;" horiz-adv-x="755" d="M90 1161q0 106 50 182t98 103q25 14 34 0l17 -21q14 -16 -8 -32q-104 -84 -115 -195q-2 -45 10 -78q16 10 33 10q39 0 60.5 -23.5t21.5 -57.5q0 -37 -23.5 -58.5t-62.5 -21.5q-49 0 -82 48t-33 144zM457 1161q0 106 50 182t97 103q25 14 35 0l16 -21q14 -16 -8 -32 q-104 -84 -115 -195q-2 -45 11 -78q16 10 32 10q39 0 60.5 -23.5t21.5 -57.5q0 -37 -23.5 -58.5t-62.5 -21.5q-49 0 -81.5 48t-32.5 144z" />
<glyph unicode="&#x201d;" horiz-adv-x="753" d="M104 1374q0 37 24 58.5t62 21.5q49 0 82 -48t33 -144q0 -106 -50 -182t-97 -103q-25 -14 -35 0l-17 20q-14 16 9 33q104 84 114 195q2 45 -10 78q-16 -10 -33 -11q-39 0 -60.5 23.5t-21.5 58.5zM471 1374q0 37 23.5 58.5t62.5 21.5q49 0 82 -48t33 -144 q0 -106 -50.5 -182t-97.5 -103q-25 -14 -35 0l-16 20q-14 16 8 33q104 84 115 195q2 45 -10 78q-16 -10 -33 -11q-39 0 -60.5 23.5t-21.5 58.5z" />
<glyph unicode="&#x201e;" horiz-adv-x="835" d="M143 59q0 37 23.5 58.5t62.5 21.5q49 0 82 -48t33 -144q0 -106 -50 -182t-97 -103q-25 -14 -35 0l-17 21q-14 16 9 32q104 84 114 195q2 45 -10 78q-16 -10 -33 -11q-39 0 -60.5 23.5t-21.5 58.5zM510 59q0 37 23.5 58.5t62.5 21.5q49 0 82 -48t33 -144 q0 -106 -50.5 -182t-97.5 -103q-25 -14 -35 0l-16 21q-14 16 8 32q104 84 115 195q2 45 -10 78q-16 -10 -33 -11q-39 0 -60.5 23.5t-21.5 58.5z" />
<glyph unicode="&#x2022;" horiz-adv-x="724" d="M213 461q0 63 43 107t102 44q63 0 107.5 -44t44.5 -107q0 -59 -44.5 -102.5t-107.5 -43.5q-59 0 -102 43t-43 103z" />
<glyph unicode="&#x2026;" horiz-adv-x="1277" d="M160 63q0 33 24.5 57.5t59.5 24.5t58.5 -23.5t23.5 -58t-23.5 -59t-58.5 -24.5t-59.5 24t-24.5 59zM553 63.5q0 34.5 24.5 58t57.5 23.5q35 0 58.5 -23.5t23.5 -58t-23.5 -59t-58.5 -24.5q-33 0 -57.5 24.5t-24.5 59zM952 63.5q0 34.5 23.5 58t58.5 23.5t58.5 -23.5 t23.5 -58t-23.5 -59t-58.5 -24.5q-33 0 -57.5 24.5t-24.5 59z" />
<glyph unicode="&#x202f;" horiz-adv-x="396" />
<glyph unicode="&#x2039;" horiz-adv-x="501" d="M94 408q-12 14 0 34l221 316q12 18 33 18h33q12 0 15 -11t-5 -26l-192 -313l192 -322q8 -14 5 -25t-15 -11h-33q-21 0 -33 18z" />
<glyph unicode="&#x203a;" horiz-adv-x="501" d="M105.5 79q-3.5 11 5.5 25l192 322l-192 313q-8 14 -5 25.5t15 11.5h33q20 0 32 -18l222 -316q12 -20 0 -34l-222 -322q-12 -18 -32 -18h-33q-12 0 -15.5 11z" />
<glyph unicode="&#x205f;" horiz-adv-x="495" />
<glyph unicode="&#x20ac;" horiz-adv-x="1505" d="M41 557v10q0 27 25 27h96q-10 61 -10 121q0 39 2 57h-88q-25 0 -25 29v10q0 27 25 27h96q43 264 249.5 440t481.5 176q291 0 498 -190q18 -18 2 -37l-31 -31q-20 -20 -41 0q-174 166 -428 166q-236 0 -411 -149.5t-216 -374.5h662q27 0 26 -31v-8q0 -27 -26 -27h-672 q-2 -18 -2 -57q0 -72 10 -121h584q25 0 24 -31v-8q0 -25 -24 -25h-567q59 -203 227 -330.5t385 -127.5q137 0 232.5 42t199.5 130q20 16 33 4l35 -35q18 -18 0 -35q-207 -199 -500 -198q-258 0 -456.5 154.5t-260.5 395.5h-110q-25 0 -25 27z" />
<glyph unicode="&#x2122;" horiz-adv-x="1476" d="M100 1397v10q0 27 27 27h426q27 0 27 -27v-14q0 -27 -27 -27h-176v-532q0 -27 -27 -27h-20q-25 0 -25 27v532h-178q-27 0 -27 31zM612 838l140 596q6 20 22 20h10q12 0 21 -20l176 -502h2l178 502q8 20 21 20h10q16 0 22 -20l140 -596q8 -31 -21 -31h-22q-18 0 -25 20 l-108 445h-2l-164 -459q-6 -16 -19 -16h-20q-12 0 -19 16l-166 459h-2l-106 -445q-6 -20 -25 -20h-22q-29 0 -21 31z" />
<glyph unicode="&#xe000;" horiz-adv-x="819" d="M0 0v819h819v-819h-819z" />
<glyph unicode="&#xfb03;" horiz-adv-x="1609" d="M55 766v27q0 27 27 26h125v232q0 190 99.5 286.5t252.5 96.5q150 0 275 -99q94 119 260 119q100 0 181 -37t120 -74q14 -10 2 -30l-23 -33q-10 -16 -33 -2l-22 16q-20 14 -30.5 20.5t-36 20t-46 19.5t-50.5 12t-60 6q-111 0 -179.5 -75.5t-68.5 -206.5v-271h579 q27 0 27 -26v-766q0 -27 -29 -27h-34q-27 0 -27 27v712h-516v-712q0 -27 -29 -27h-33q-27 0 -26 27v712h-465v-712q0 -27 -29 -27h-33q-26 0 -26 27v712h-125q-27 0 -27 27zM295 819h465v273q0 90 33 165q-31 33 -96.5 64t-137.5 31q-121 0 -192.5 -75t-71.5 -226v-232z" />
<glyph unicode="&#xfb04;" horiz-adv-x="1617" d="M57 766v27q0 27 27 26h123v232q0 193 99.5 288t256.5 95q143 0 266 -97q92 117 269 117q164 0 282 -111l9 66q4 25 34 25h13q27 0 26 -27v-1380q0 -27 -26 -27q-53 0 -60 16q-2 4 -2 11v1212q-2 0 -11 10.5t-17.5 17.5t-24.5 20t-31.5 22.5t-38 20.5t-45 18.5t-50.5 12.5 t-56 5q-104 0 -178 -66.5t-74 -197.5v-283h303q27 0 27 -24v-31q0 -25 -27 -25h-303v-712q0 -27 -29 -27h-33q-27 0 -26 27v712h-463l-2 -712q0 -27 -29 -27h-33q-26 0 -26 27v712h-123q-27 0 -27 27zM297 819h463v283q0 88 28 155q-29 33 -93 64t-132 31q-127 0 -196.5 -75 t-69.5 -230v-228z" />
</font>
</defs>
</svg>
